<svg width="28" height="21" viewBox="0 0 28 21" fill="none" xmlns="http://www.w3.org/2000/svg">
<path d="M14.0175 10.7445C14.6711 10.1787 15.1954 9.47893 15.5547 8.69265C15.914 7.90637 16.1 7.05199 16.1 6.1875C16.1 4.56305 15.4547 3.00513 14.306 1.85647C13.1574 0.707811 11.5994 0.0625002 9.97499 0.0625002C8.35054 0.0625002 6.79262 0.707811 5.64396 1.85647C4.4953 3.00513 3.84999 4.56305 3.84999 6.1875C3.84998 7.05199 4.03594 7.90637 4.39527 8.69265C4.75459 9.47893 5.27886 10.1787 5.93249 10.7445C4.21766 11.521 2.76276 12.775 1.74174 14.3565C0.720719 15.938 0.176791 17.7801 0.174988 19.6625C0.174988 19.9874 0.30405 20.299 0.533782 20.5287C0.763514 20.7584 1.0751 20.8875 1.39999 20.8875C1.72488 20.8875 2.03646 20.7584 2.26619 20.5287C2.49593 20.299 2.62499 19.9874 2.62499 19.6625C2.62499 17.7132 3.39936 15.8437 4.77775 14.4653C6.15615 13.0869 8.02565 12.3125 9.97499 12.3125C11.9243 12.3125 13.7938 13.0869 15.1722 14.4653C16.5506 15.8437 17.325 17.7132 17.325 19.6625C17.325 19.9874 17.4541 20.299 17.6838 20.5287C17.9135 20.7584 18.2251 20.8875 18.55 20.8875C18.8749 20.8875 19.1865 20.7584 19.4162 20.5287C19.6459 20.299 19.775 19.9874 19.775 19.6625C19.7732 17.7801 19.2293 15.938 18.2082 14.3565C17.1872 12.775 15.7323 11.521 14.0175 10.7445V10.7445ZM9.97499 9.8625C9.24814 9.8625 8.53762 9.64696 7.93327 9.24315C7.32892 8.83934 6.85788 8.26538 6.57973 7.59386C6.30158 6.92234 6.2288 6.18342 6.3706 5.47054C6.5124 4.75766 6.86241 4.10284 7.37637 3.58888C7.89033 3.07493 8.54515 2.72492 9.25803 2.58311C9.97091 2.44131 10.7098 2.51409 11.3813 2.79224C12.0529 3.0704 12.6268 3.54143 13.0306 4.14578C13.4345 4.75013 13.65 5.46065 13.65 6.1875C13.65 7.16217 13.2628 8.09692 12.5736 8.78612C11.8844 9.47531 10.9497 9.8625 9.97499 9.8625ZM21.9065 10.2545C22.6904 9.37168 23.2025 8.28109 23.3811 7.11402C23.5597 5.94694 23.3972 4.75312 22.9132 3.67625C22.4291 2.59938 21.6441 1.68537 20.6527 1.04424C19.6612 0.403111 18.5057 0.0621844 17.325 0.0625002C17.0001 0.0625002 16.6885 0.191562 16.4588 0.421294C16.2291 0.651026 16.1 0.96261 16.1 1.2875C16.1 1.61239 16.2291 1.92397 16.4588 2.15371C16.6885 2.38344 17.0001 2.5125 17.325 2.5125C18.2997 2.5125 19.2344 2.89969 19.9236 3.58888C20.6128 4.27808 21 5.21283 21 6.1875C20.9983 6.83092 20.8276 7.46261 20.5052 8.01939C20.1827 8.57618 19.7197 9.03854 19.1625 9.36025C18.9809 9.46501 18.8292 9.61464 18.7219 9.79481C18.6147 9.97497 18.5555 10.1797 18.55 10.3893C18.5449 10.5972 18.5928 10.8031 18.6892 10.9874C18.7857 11.1717 18.9275 11.3284 19.1012 11.4428L19.579 11.7613L19.7382 11.847C21.2148 12.5474 22.4606 13.6551 23.3287 15.0397C24.1968 16.4244 24.6512 18.0283 24.6382 19.6625C24.6382 19.9874 24.7673 20.299 24.997 20.5287C25.2268 20.7584 25.5383 20.8875 25.8632 20.8875C26.1881 20.8875 26.4997 20.7584 26.7294 20.5287C26.9592 20.299 27.0882 19.9874 27.0882 19.6625C27.0983 17.7827 26.6274 15.9315 25.7205 14.2848C24.8136 12.6382 23.5006 11.2508 21.9065 10.2545V10.2545Z" fill="white"/>
</svg>
