<svg width="106" height="37" viewBox="0 0 106 37" fill="none" xmlns="http://www.w3.org/2000/svg">
<path d="M7 30H15.5794V21.6729H19.743H23.6542V30H32.2336V13.7899L19.6168 3L7 13.7899V30Z" stroke="#191414" stroke-width="3" stroke-linecap="round" stroke-linejoin="round"/>
<path d="M7 30H15.5794V21.6729H19.743H23.6542V30H32.2336V13.7899L19.6168 3L7 13.7899V30Z" stroke="#191414" stroke-width="3" stroke-linecap="round" stroke-linejoin="round"/>
<path d="M80.56 27.752V6.248H78.688V27.752H80.56ZM76.288 6.728H74.416V14.36H71.224V8.744H63.04V21.992H71.224V15.992H74.416V26.696H76.288V6.728ZM64.888 10.304H69.4V20.432H64.888V10.304ZM100.046 21.992H102.014V6.272H100.046V21.992ZM96.0861 13.04C96.0861 9.944 93.6381 7.76 90.4461 7.76C87.2541 7.76 84.8541 9.944 84.8541 13.04C84.8541 16.16 87.2541 18.368 90.4461 18.368C93.6381 18.368 96.0861 16.16 96.0861 13.04ZM86.7741 13.04C86.7741 10.952 88.3341 9.464 90.4461 9.464C92.5821 9.464 94.1661 10.952 94.1661 13.04C94.1661 15.176 92.5821 16.664 90.4461 16.664C88.3341 16.664 86.7741 15.176 86.7741 13.04ZM102.662 27.296V25.688H90.1341V20.384H88.1661V27.296H102.662Z" fill="#191414"/>
</svg>
