<svg width="194" height="27" viewBox="0 0 194 27" fill="none" xmlns="http://www.w3.org/2000/svg">
<path fill-rule="evenodd" clip-rule="evenodd" d="M1.10937 13.1866C1.10937 13.048 1.22758 12.9356 1.37341 12.9356L13.5563 12.9356L13.5563 1.35495C13.5563 1.21633 13.6745 1.10396 13.8203 1.10396C13.9661 1.10396 14.0844 1.21633 14.0844 1.35495L14.0844 12.9356H26.2672C26.4131 12.9356 26.5313 13.048 26.5313 13.1866C26.5313 13.3252 26.4131 13.4376 26.2672 13.4376H14.0844L14.0844 25.0183C14.0844 25.1569 13.9661 25.2693 13.8203 25.2693C13.6745 25.2693 13.5563 25.1569 13.5563 25.0183L13.5563 13.4376L1.37341 13.4376C1.22758 13.4376 1.10937 13.3252 1.10937 13.1866Z" stroke="white" stroke-width="2" stroke-linecap="round" stroke-linejoin="round"/>
<path d="M69.994 20.53V3.952H67.744V10.414H66.412V4.24H64.198V14.86C61.894 13.564 61.138 10.882 61.138 8.02V5.41H58.834V8.2C58.834 10.99 57.952 13.996 55.468 15.472L56.944 17.218C58.456 16.3 59.392 14.806 59.968 12.988C60.526 14.644 61.39 15.94 62.83 16.732L64.198 14.896V19.792H66.412V12.322H67.744V20.53H69.994ZM87.3446 18.73V16.786H81.0086V14.32H86.0306V12.412H76.4186V10.558H85.6526V5.032H74.0426V6.922H83.3126V8.704H74.0606V14.32H78.6326V16.786H72.3326V18.73H87.3446ZM96.3792 11.152C99.9792 11.152 102.337 9.82 102.337 7.714C102.337 5.626 99.9792 4.276 96.3792 4.276C92.8332 4.276 90.4212 5.626 90.4212 7.714C90.4212 9.82 92.8332 11.152 96.3792 11.152ZM96.3792 6.166C98.4852 6.166 99.7812 6.688 99.7812 7.714C99.7812 8.74 98.4852 9.262 96.3792 9.262C94.2732 9.262 92.9952 8.74 92.9952 7.714C92.9952 6.688 94.2732 6.166 96.3792 6.166ZM103.903 13.906V12.016H88.8912V13.906H95.3172V16.75H97.7472V13.906H103.903ZM102.265 18.37H93.0492V15.292H90.6372V20.26H102.265V18.37ZM124.54 18.622V16.696H118.204V13.33H122.902V5.194H111.112V13.33H115.828V16.696H109.528V18.622H124.54ZM120.58 11.458H113.434V7.066H120.58V11.458ZM139.857 13.366V3.97H137.463V13.366H139.857ZM130.839 4.726C128.265 4.726 126.321 6.382 126.321 8.722C126.321 11.044 128.265 12.7 130.839 12.7C133.413 12.7 135.339 11.044 135.339 8.722C135.339 6.382 133.413 4.726 130.839 4.726ZM130.839 6.706C132.081 6.706 133.017 7.426 133.017 8.722C133.017 9.964 132.081 10.72 130.839 10.72C129.543 10.72 128.643 9.964 128.643 8.722C128.643 7.426 129.543 6.706 130.839 6.706ZM139.857 20.35V14.104H128.823V20.35H139.857ZM131.163 18.496V15.958H137.535V18.496H131.163ZM161.969 10.702V8.758H159.773V3.97H157.397V16.066H159.773V10.702H161.969ZM147.209 13.33H155.111V5.338H147.209V13.33ZM149.531 7.21H152.771V11.458H149.531V7.21ZM160.367 18.37H151.457V14.878H149.081V20.26H160.367V18.37ZM165.154 9.514H176.512V7.642H167.512V6.184H176.386V4.294H165.154V9.514ZM178.294 12.268V10.396H163.3V12.268H178.294ZM176.872 18.586H167.368V17.596H176.44V13.204H164.992V14.986H174.1V15.922H165.01V20.404H176.872V18.586ZM193.646 20.53V3.952H191.252V20.53H193.646ZM188.714 5.68H180.758V7.57H186.284C185.942 11.242 184.106 13.852 179.876 15.868L181.118 17.74C187.004 14.914 188.714 10.738 188.714 5.68Z" fill="white"/>
</svg>
