<svg width="229" height="99" viewBox="0 0 229 99" fill="none" xmlns="http://www.w3.org/2000/svg">
<path d="M15.3089 63.949V63.075H12.6679V58.458H11.6609V68.68H12.6679V63.949H15.3089ZM9.72287 66.438L9.58987 65.602C7.19587 66.058 5.14387 66.191 1.78087 66.191H1.53387V60.7H7.91787V59.845H0.526867V67.046H1.78087C5.18187 67.046 7.25287 66.894 9.72287 66.438ZM7.34787 69.06C3.98487 69.06 1.91387 70.181 1.91387 72.157C1.91387 74.133 4.00387 75.273 7.34787 75.273C10.7299 75.273 12.8009 74.133 12.8009 72.157C12.8009 70.181 10.7299 69.06 7.34787 69.06ZM7.34787 74.437C4.66887 74.437 2.88287 73.544 2.88287 72.157C2.88287 70.789 4.66887 69.896 7.34787 69.896C10.0649 69.896 11.8129 70.789 11.8129 72.157C11.8129 73.544 10.0649 74.437 7.34787 74.437ZM29.8614 70.884H30.8684V58.477H29.8614V70.884ZM26.6504 68.015L27.1824 67.217C24.8454 66.305 22.7934 63.873 22.7934 61.156V59.408H21.8054V61.156C21.8054 63.987 19.8294 66.533 17.4544 67.54L18.0244 68.357C20.0004 67.464 21.6344 65.678 22.3184 63.379C23.0214 65.526 24.6744 67.198 26.6504 68.015ZM31.4384 74.912V74.057H21.2734V69.763H20.2664V74.912H31.4384ZM50.2659 64.595V63.74H47.6249V58.42H46.6179V70.846H47.6249V64.595H50.2659ZM35.4459 67.635H43.0269V60.035H35.4459V67.635ZM36.4339 60.871H42.0579V66.799H36.4339V60.871ZM48.4609 74.057H38.3339V69.687H37.3269V74.912H48.4609V74.057ZM59.7264 64.671C63.4504 64.671 65.5594 63.626 65.5594 61.707C65.5594 59.807 63.3934 58.762 59.7264 58.762C56.0594 58.762 53.8934 59.807 53.8934 61.707C53.8934 63.626 56.0024 64.671 59.7264 64.671ZM59.7264 59.56C62.6904 59.56 64.5334 60.396 64.5334 61.707C64.5334 63.056 62.6904 63.873 59.7264 63.873C56.7624 63.873 54.9194 63.056 54.9194 61.707C54.9194 60.396 56.7624 59.56 59.7264 59.56ZM67.3454 66.856V66.001H52.0884V66.856H67.3454ZM65.8824 74.247H55.0334V72.081H65.3314V68.604H54.0074V69.421H64.3434V71.302H54.0454V75.083H65.8824V74.247ZM87.4398 75.349V58.477H86.4328V75.349H87.4398ZM79.3268 66.096C81.8158 66.096 83.5638 64.728 83.5638 62.695C83.5638 60.681 81.8158 59.313 79.3268 59.313C76.8378 59.313 75.1278 60.681 75.1278 62.695C75.1278 64.728 76.8378 66.096 79.3268 66.096ZM79.3268 60.168C81.2268 60.168 82.5948 61.251 82.5948 62.695C82.5948 64.158 81.2268 65.241 79.3268 65.241C77.4268 65.241 76.0968 64.158 76.0968 62.695C76.0968 61.251 77.4268 60.168 79.3268 60.168ZM85.1788 67.939L85.1028 67.141C81.3028 67.692 76.9328 67.768 73.7028 67.768L73.8738 68.661C75.3938 68.661 77.1038 68.642 78.9278 68.566V74.798H79.9348V68.509C81.6828 68.414 83.4308 68.224 85.1788 67.939ZM91.3334 61.536H101.327V60.7H96.8434V58.477H95.8364V60.7H91.3334V61.536ZM106.913 65.108V64.253H104.272V58.477H103.265V71.15H104.272V65.108H106.913ZM100.301 65.754C100.301 63.873 98.7054 62.657 96.3304 62.657C93.9364 62.657 92.3404 63.873 92.3404 65.754C92.3404 67.635 93.9364 68.832 96.3304 68.832C98.7054 68.832 100.301 67.635 100.301 65.754ZM93.2904 65.754C93.2904 64.386 94.5064 63.474 96.3304 63.474C98.1544 63.474 99.3514 64.386 99.3514 65.754C99.3514 67.065 98.1354 68.015 96.3304 68.015C94.5064 68.015 93.2904 67.065 93.2904 65.754ZM105.108 74.057H94.9814V70.105H93.9744V74.912H105.108V74.057ZM128.604 63.588V62.714H125.963V58.458H124.956V68.167H125.963V63.588H128.604ZM113.784 66.723H121.365V59.636H113.784V66.723ZM114.772 60.472H120.396V65.887H114.772V60.472ZM121.346 70.162L126.286 70.143V69.288H115.399V70.143H120.32V70.162C120.32 72.29 117.299 74.019 114.772 74.475L115.171 75.254C117.451 74.798 119.921 73.563 120.833 71.682C121.764 73.525 124.253 74.817 126.495 75.273L126.894 74.475C124.386 74.019 121.346 72.271 121.346 70.162ZM131.471 64.899L131.794 65.716C134.321 65.355 137.095 64.291 138.064 62.41C139.014 64.31 141.807 65.355 144.353 65.716L144.657 64.899C141.883 64.595 138.596 63.284 138.596 60.947H144.087V60.111H138.577V58.268H137.57V60.111H132.079V60.947H137.532C137.532 63.284 134.245 64.595 131.471 64.899ZM138.577 69.953V67.768H145.683V66.913H130.426V67.768H137.57V69.953H132.364V75.064H143.802V69.953H138.577ZM133.333 70.789H142.814V74.209H133.333V70.789ZM159.736 65.583C163.308 65.583 165.569 64.31 165.569 62.258C165.569 60.206 163.308 58.952 159.736 58.952C156.221 58.952 153.941 60.206 153.941 62.258C153.941 64.31 156.221 65.583 159.736 65.583ZM159.736 59.788C162.567 59.788 164.524 60.795 164.524 62.258C164.524 63.721 162.567 64.728 159.736 64.728C156.905 64.728 154.986 63.721 154.986 62.258C154.986 60.795 156.905 59.788 159.736 59.788ZM167.431 68.091V67.236H152.098V68.091H159.394V71.834H160.401V68.091H167.431ZM165.74 74.038H155.157V70.067H154.169V74.912H165.74V74.038ZM184.871 67.844V66.989H177.708V64.728H183.047V63.873H172.559V60.092H182.914V59.237H171.571V64.728H176.72V66.989H169.614V67.844H184.871ZM177.233 69.288C173.661 69.288 171.495 70.371 171.495 72.29C171.495 74.247 173.661 75.292 177.233 75.292C180.805 75.292 182.971 74.247 182.971 72.29C182.971 70.371 180.805 69.288 177.233 69.288ZM177.233 74.475C174.345 74.475 172.502 73.658 172.502 72.29C172.502 70.922 174.345 70.105 177.233 70.105C180.121 70.105 181.964 70.922 181.964 72.29C181.964 73.658 180.121 74.475 177.233 74.475ZM206.619 73.05V72.195H199.418V67.673H204.643V59.94H193.205V67.673H198.411V72.195H191.286V73.05H206.619ZM203.674 66.856H194.174V60.757H203.674V66.856ZM222.501 68.167V58.458H221.494V68.167H222.501ZM213.514 59.408C211.025 59.408 209.258 60.947 209.258 63.284C209.258 65.621 211.025 67.16 213.514 67.16C216.041 67.16 217.808 65.621 217.808 63.284C217.808 60.947 216.041 59.408 213.514 59.408ZM213.514 60.263C215.433 60.263 216.839 61.536 216.839 63.284C216.839 65.032 215.433 66.305 213.514 66.305C211.614 66.305 210.227 65.032 210.227 63.284C210.227 61.536 211.614 60.263 213.514 60.263ZM222.501 75.064V69.155H211.785V75.064H222.501ZM212.773 74.209V69.991H221.513V74.209H212.773ZM228.352 59.902H227.212L227.383 70.808H228.2L228.352 59.902ZM228.333 73.031H227.231V74.247H228.333V73.031ZM37.706 84.149H36.528L39.625 98H40.917L43.292 88.747C43.539 87.607 43.824 86.695 44.052 85.631H44.128C44.375 86.695 44.622 87.607 44.85 88.747L47.301 98H48.593L51.633 84.149H50.512L48.84 92.167C48.536 93.687 48.251 95.169 47.966 96.689H47.871C47.51 95.169 47.168 93.687 46.807 92.167L44.679 84.149H43.558L41.449 92.167C41.088 93.687 40.746 95.169 40.385 96.689H40.309C40.005 95.169 39.701 93.687 39.378 92.167L37.706 84.149ZM58.96 98.247C62.342 98.247 64.717 95.454 64.717 91.027C64.717 86.638 62.342 83.902 58.96 83.902C55.616 83.902 53.222 86.638 53.222 91.027C53.222 95.454 55.616 98.247 58.96 98.247ZM58.96 97.221C56.224 97.221 54.419 94.789 54.419 91.027C54.419 87.284 56.224 84.928 58.96 84.928C61.696 84.928 63.539 87.284 63.539 91.027C63.539 94.789 61.696 97.221 58.96 97.221ZM72.7462 98.247C76.1282 98.247 78.5032 95.454 78.5032 91.027C78.5032 86.638 76.1282 83.902 72.7462 83.902C69.4022 83.902 67.0082 86.638 67.0082 91.027C67.0082 95.454 69.4022 98.247 72.7462 98.247ZM72.7462 97.221C70.0102 97.221 68.2052 94.789 68.2052 91.027C68.2052 87.284 70.0102 84.928 72.7462 84.928C75.4822 84.928 77.3252 87.284 77.3252 91.027C77.3252 94.789 75.4822 97.221 72.7462 97.221ZM82.8463 84.149H81.6683V98H82.7513V89.697C82.7513 88.31 82.6563 87.056 82.5993 85.688H82.6943L84.2523 88.462L89.8953 98H91.0733V84.149H89.9903V92.357C89.9903 93.725 90.0663 95.093 90.1423 96.461H90.0473L88.5083 93.668L82.8463 84.149ZM98.3699 84.149H95.1019V98H98.3889C102.645 98 104.716 95.264 104.716 91.027C104.716 86.771 102.626 84.149 98.3699 84.149ZM98.2559 97.031H96.2419V85.099H98.2559C101.904 85.099 103.519 87.436 103.519 91.027C103.519 94.599 101.904 97.031 98.2559 97.031ZM112.732 98.247C116.114 98.247 118.489 95.454 118.489 91.027C118.489 86.638 116.114 83.902 112.732 83.902C109.388 83.902 106.994 86.638 106.994 91.027C106.994 95.454 109.388 98.247 112.732 98.247ZM112.732 97.221C109.996 97.221 108.191 94.789 108.191 91.027C108.191 87.284 109.996 84.928 112.732 84.928C115.468 84.928 117.311 87.284 117.311 91.027C117.311 94.789 115.468 97.221 112.732 97.221ZM122.832 84.149H121.654V98H122.737V89.697C122.737 88.31 122.642 87.056 122.585 85.688H122.68L124.238 88.462L129.881 98H131.059V84.149H129.976V92.357C129.976 93.725 130.052 95.093 130.128 96.461H130.033L128.494 93.668L122.832 84.149ZM140.217 98.247C142.06 98.247 143.485 97.601 144.378 96.67V91.103H140.065V92.072H143.276V96.233C142.649 96.86 141.547 97.221 140.331 97.221C137.215 97.221 135.41 94.808 135.41 91.027C135.41 87.284 137.329 84.928 140.407 84.928C141.927 84.928 142.858 85.555 143.561 86.315L144.226 85.574C143.485 84.776 142.25 83.902 140.388 83.902C136.74 83.902 134.213 86.638 134.213 91.065C134.213 95.473 136.645 98.247 140.217 98.247ZM150.17 98.247C152.735 98.247 153.704 96.442 153.704 94.162V84.149H152.564V94.048C152.564 96.271 151.804 97.221 150.132 97.221C148.992 97.221 148.194 96.765 147.51 95.606L146.655 96.176C147.396 97.563 148.574 98.247 150.17 98.247ZM158.542 93.345H163.938L165.477 98H166.693L161.848 84.149H160.67L155.825 98H156.965L158.542 93.345ZM162.798 89.925L163.634 92.433H158.846L159.701 89.925C160.252 88.31 160.727 86.847 161.202 85.175H161.278C161.791 86.847 162.209 88.31 162.798 89.925ZM170.016 84.149H168.838V98H169.921V89.697C169.921 88.31 169.826 87.056 169.769 85.688H169.864L171.422 88.462L177.065 98H178.243V84.149H177.16V92.357C177.16 93.725 177.236 95.093 177.312 96.461H177.217L175.678 93.668L170.016 84.149ZM187.402 98.247C189.245 98.247 190.67 97.601 191.563 96.67V91.103H187.25V92.072H190.461V96.233C189.834 96.86 188.732 97.221 187.516 97.221C184.4 97.221 182.595 94.808 182.595 91.027C182.595 87.284 184.514 84.928 187.592 84.928C189.112 84.928 190.043 85.555 190.746 86.315L191.411 85.574C190.67 84.776 189.435 83.902 187.573 83.902C183.925 83.902 181.398 86.638 181.398 91.065C181.398 95.473 183.83 98.247 187.402 98.247Z" fill="#247100" fill-opacity="0.79"/>
<g clip-path="url(#clip0_0_1)">
<path d="M92.1331 20.9922H83.7511C82.1794 20.9922 81.5682 19.9445 81.5682 18.8969C81.5682 17.8493 82.1794 16.7144 83.7511 16.7144H105.754C107.326 16.7144 107.937 17.8493 107.937 18.8969C107.937 19.9445 107.326 20.9922 105.754 20.9922H97.8085V21.7779C97.8085 23.262 96.4988 24.4843 95.0144 24.4843C93.4428 24.4843 92.2204 23.262 92.2204 21.7779V20.9922H92.1331ZM88.6406 15.4048C84.5369 15.4048 82.5287 13.3096 82.5287 10.1667C82.5287 7.02384 84.5369 4.92859 88.6406 4.92859H101.039C105.143 4.92859 107.151 7.11114 107.151 10.1667C107.151 13.2223 105.143 15.4048 101.039 15.4048H88.6406ZM82.9652 26.3176V24.5716C82.9652 22.7382 84.3623 21.9525 85.9339 21.9525C87.5055 21.9525 88.8152 22.7382 88.8152 24.5716V25.5319C88.8152 26.143 88.9898 26.0557 89.601 26.0557H104.794C106.54 26.0557 107.151 27.1033 107.151 28.1509C107.151 29.2859 106.452 30.2462 104.794 30.2462H86.9816C83.8384 30.2462 82.9652 29.1986 82.9652 26.3176ZM99.5547 11.4762C100.952 11.4762 101.301 10.9524 101.301 10.254C101.301 9.4683 100.864 9.03179 99.5547 9.03179H90.0376C88.6406 9.03179 88.2913 9.4683 88.2913 10.254C88.2913 10.9524 88.7279 11.4762 90.0376 11.4762H99.5547V11.4762Z" fill="#247100"/>
<path d="M117.367 8.85734C116.843 8.85734 116.668 9.03194 116.668 9.46845V9.90496C116.668 10.4288 116.843 10.5161 117.367 10.5161H133.17C134.567 10.5161 135.178 11.4764 135.178 12.4367C135.178 13.397 134.655 14.2701 133.17 14.2701H125.923V15.8415H134.043C135.615 15.8415 136.226 16.8891 136.226 17.8495C136.226 18.8971 135.615 19.8574 134.043 19.8574H112.04C110.469 19.8574 109.858 18.8971 109.858 17.8495C109.858 16.8018 110.469 15.8415 112.04 15.8415H120.161V14.2701H114.66C111.691 14.2701 110.905 13.5717 110.905 10.778V8.59543C110.905 5.88907 111.604 5.10335 114.66 5.10335H132.996C134.48 5.10335 135.004 6.06367 135.004 7.02399C135.004 7.98432 134.48 8.94464 132.996 8.94464H117.367V8.85734ZM130.202 21.0796C133.781 21.0796 135.44 23.0876 135.44 25.7066C135.44 28.3257 133.781 30.3337 130.202 30.3337H115.795C112.215 30.3337 110.556 28.3257 110.556 25.7066C110.556 23.0876 112.215 21.0796 115.795 21.0796H130.202ZM128.455 26.5797C129.416 26.5797 129.678 26.1432 129.678 25.6193C129.678 25.0955 129.416 24.7463 128.455 24.7463H117.541C116.581 24.7463 116.319 25.1828 116.319 25.7066C116.319 26.2305 116.581 26.667 117.541 26.667H128.455V26.5797Z" fill="#247100"/>
<path d="M149.41 9.90489V10.4287C149.41 10.8652 149.41 11.3017 149.323 11.7382C152.554 11.8255 154.475 13.0478 155.26 15.5795C155.784 17.2383 154.475 18.8097 152.728 18.8097C151.593 18.8097 150.633 18.024 150.196 16.9764C149.76 16.016 148.974 15.4922 147.839 15.5795C146.18 17.7621 143.561 18.9843 140.941 19.0716C139.544 19.1589 138.409 18.2859 138.322 17.0637C138.234 15.7541 138.933 14.9684 140.068 14.7938C142.6 14.3573 144.172 12.6986 144.172 10.4287V9.90489H140.679C139.369 9.90489 138.584 8.68266 138.584 7.72234C138.584 6.76201 139.195 5.53978 140.679 5.53978H153.602C154.999 5.53978 155.697 6.76201 155.697 7.72234C155.697 8.68266 154.999 9.90489 153.602 9.90489H149.41ZM145.569 30.3336C141.64 30.3336 139.806 28.151 139.806 25.1828C139.806 22.3018 141.64 19.9446 145.569 19.9446H157.618C161.46 19.9446 163.381 22.2145 163.381 25.1828C163.381 28.151 161.46 30.3336 157.618 30.3336H145.569ZM156.046 26.4923C157.269 26.4923 157.618 25.7066 157.618 25.0955C157.618 24.4843 157.269 23.7859 156.046 23.7859H147.053C145.831 23.7859 145.481 24.4843 145.481 25.0955C145.481 25.7066 145.831 26.4923 147.053 26.4923H156.046ZM157.356 7.37313C157.356 5.62709 158.666 4.66676 160.15 4.66676C161.634 4.66676 162.944 5.62709 162.944 7.37313V9.46838H163.817C165.563 9.46838 166.087 10.6906 166.087 11.8255C166.087 12.9605 165.563 14.1827 163.817 14.1827H162.944V16.6272C162.944 18.024 161.722 19.1589 160.325 19.1589H160.063C158.578 19.1589 157.443 18.024 157.443 16.6272V7.37313H157.356Z" fill="#247100"/>
</g>
<path d="M51.9321 9.9972H46.4993C45.119 9.9972 44 11.1162 44 12.4965V12.4965C44 13.8768 45.119 14.9957 46.4993 14.9957H58.9641C59.1759 14.9957 59.3242 14.7954 59.2394 14.6051C58.0533 11.9005 55.2257 9.9972 51.9321 9.9972Z" fill="#247100"/>
<path d="M58.9641 20.0044H46.4993C45.119 20.0044 44 21.1233 44 22.5036V22.5036C44 23.8839 45.119 25.0029 46.4993 25.0029H51.9321C55.2257 25.0029 58.0533 23.0996 59.25 20.395C59.3242 20.2047 59.1759 20.0044 58.9641 20.0044Z" fill="#247100"/>
<path d="M49.2846 30.0015H46.4993C45.119 30.0015 44 31.1204 44 32.5007V32.5007C44 33.881 45.119 35 46.4993 35H49.2846V30.0015Z" fill="#247100"/>
<path d="M51.9321 0H46.4993C45.119 0 44 1.11897 44 2.49929V2.49929C44 3.8796 45.119 4.99857 46.4993 4.99857H51.9321C59.2289 4.99857 65.1488 10.5982 65.1488 17.5001C65.1488 24.1214 59.7054 29.5407 52.8217 29.9714V34.9801C62.6284 34.5393 70.4333 26.8861 70.4333 17.5001C70.4333 7.83344 62.1517 0 51.9321 0Z" fill="#247100"/>
<defs>
<clipPath id="clip0_0_1">
<rect width="84.4317" height="25.6668" fill="white" transform="translate(81.5682 4.66676)"/>
</clipPath>
</defs>
</svg>
