<svg width="108" height="31" viewBox="0 0 108 31" fill="none" xmlns="http://www.w3.org/2000/svg">
<g clip-path="url(#clip0_39_1125)">
<path d="M42.3847 18.6292H34.939C33.5429 18.6292 33 17.6904 33 16.7516C33 15.8128 33.5429 14.7958 34.939 14.7958H54.484C55.88 14.7958 56.423 15.8128 56.423 16.7516C56.423 17.6904 55.88 18.6292 54.484 18.6292H47.4261V19.3333C47.4261 20.6632 46.2627 21.7584 44.9442 21.7584C43.5481 21.7584 42.4623 20.6632 42.4623 19.3333V18.6292H42.3847ZM39.2823 13.6224C35.637 13.6224 33.8532 11.7448 33.8532 8.9285C33.8532 6.11217 35.637 4.23462 39.2823 4.23462H50.2958C53.9411 4.23462 55.7249 6.1904 55.7249 8.9285C55.7249 11.6666 53.9411 13.6224 50.2958 13.6224H39.2823ZM34.241 23.4013V21.8367C34.241 20.1938 35.4819 19.4897 36.878 19.4897C38.274 19.4897 39.4374 20.1938 39.4374 21.8367V22.6972C39.4374 23.2448 39.5926 23.1666 40.1355 23.1666H53.6308C55.182 23.1666 55.7249 24.1054 55.7249 25.0441C55.7249 26.0611 55.1045 26.9217 53.6308 26.9217H37.8087C35.0165 26.9217 34.241 25.9829 34.241 23.4013ZM48.9773 10.102C50.2182 10.102 50.5284 9.63258 50.5284 9.00673C50.5284 8.30265 50.1406 7.91149 48.9773 7.91149H40.5233C39.2823 7.91149 38.9721 8.30265 38.9721 9.00673C38.9721 9.63258 39.3599 10.102 40.5233 10.102H48.9773Z" fill="white"/>
<path d="M64.7994 7.75506C64.334 7.75506 64.1789 7.91152 64.1789 8.30268V8.69383C64.1789 9.16322 64.334 9.24145 64.7994 9.24145H78.8376C80.0786 9.24145 80.6215 10.102 80.6215 10.9625C80.6215 11.8231 80.1562 12.6054 78.8376 12.6054H72.4002V14.0136H79.6132C81.0093 14.0136 81.5522 14.9523 81.5522 15.8129C81.5522 16.7517 81.0093 17.6122 79.6132 17.6122H60.0683C58.6722 17.6122 58.1293 16.7517 58.1293 15.8129C58.1293 14.8741 58.6722 14.0136 60.0683 14.0136H67.2813V12.6054H62.395C59.758 12.6054 59.06 11.9795 59.06 9.47615V7.52036C59.06 5.09519 59.6805 4.39111 62.395 4.39111H78.6825C80.001 4.39111 80.4664 5.25166 80.4664 6.1122C80.4664 6.97275 80.001 7.83329 78.6825 7.83329H64.7994V7.75506ZM76.2006 18.7074C79.3806 18.7074 80.8542 20.5068 80.8542 22.8537C80.8542 25.2006 79.3806 27 76.2006 27H63.4033C60.2234 27 58.7497 25.2006 58.7497 22.8537C58.7497 20.5068 60.2234 18.7074 63.4033 18.7074H76.2006ZM74.6494 23.636C75.5026 23.636 75.7353 23.2449 75.7353 22.7755C75.7353 22.3061 75.5026 21.9932 74.6494 21.9932H64.9545C64.1014 21.9932 63.8687 22.3843 63.8687 22.8537C63.8687 23.3231 64.1014 23.7142 64.9545 23.7142H74.6494V23.636Z" fill="white"/>
<path d="M93.2637 8.69388V9.16327C93.2637 9.55442 93.2637 9.94558 93.1862 10.3367C96.0559 10.415 97.7622 11.5102 98.4602 13.7789C98.9256 15.2653 97.7622 16.6735 96.211 16.6735C95.2027 16.6735 94.3496 15.9694 93.9618 15.0306C93.574 14.1701 92.8759 13.7007 91.8677 13.7789C90.394 15.7347 88.0672 16.8299 85.7405 16.9082C84.4995 16.9864 83.4912 16.2041 83.4137 15.1088C83.3361 13.9354 83.9566 13.2313 84.9649 13.0748C87.2141 12.6837 88.6102 11.1973 88.6102 9.16327V8.69388H85.5078C84.3444 8.69388 83.6464 7.59864 83.6464 6.7381C83.6464 5.87755 84.1893 4.78231 85.5078 4.78231H96.9866C98.2275 4.78231 98.848 5.87755 98.848 6.7381C98.848 7.59864 98.2275 8.69388 96.9866 8.69388H93.2637ZM89.8511 27C86.3609 27 84.7322 25.0442 84.7322 22.3844C84.7322 19.8027 86.3609 17.6905 89.8511 17.6905H100.554C103.967 17.6905 105.673 19.7245 105.673 22.3844C105.673 25.0442 103.967 27 100.554 27H89.8511ZM99.1582 23.5578C100.244 23.5578 100.554 22.8537 100.554 22.3061C100.554 21.7585 100.244 21.1327 99.1582 21.1327H91.1696C90.0838 21.1327 89.7736 21.7585 89.7736 22.3061C89.7736 22.8537 90.0838 23.5578 91.1696 23.5578H99.1582ZM100.322 6.42517C100.322 4.86054 101.485 4 102.804 4C104.122 4 105.285 4.86054 105.285 6.42517V8.30272H106.061C107.612 8.30272 108.078 9.39796 108.078 10.415C108.078 11.432 107.612 12.5272 106.061 12.5272H105.285V14.7177C105.285 15.9694 104.2 16.9864 102.959 16.9864H102.726C101.407 16.9864 100.399 15.9694 100.399 14.7177V6.42517H100.322Z" fill="white"/>
</g>
<path d="M6.90186 8.85466H2.21363C0.991075 8.85466 0 9.84574 0 11.0683C0 12.2909 0.991078 13.2819 2.21363 13.2819H13.0205C13.2048 13.2819 13.3338 13.1045 13.26 12.936C12.228 10.5404 9.76766 8.85466 6.90186 8.85466Z" fill="white"/>
<path d="M13.0205 17.7181H2.21363C0.991077 17.7181 0 18.7092 0 19.9318C0 21.1543 0.991075 22.1454 2.21363 22.1454H6.90186C9.76766 22.1454 12.228 20.4597 13.2693 18.0642C13.3338 17.8956 13.2048 17.7181 13.0205 17.7181Z" fill="white"/>
<path d="M4.59816 26.5727H2.21363C0.991075 26.5727 0 27.5638 0 28.7864C0 30.0089 0.991076 31 2.21363 31H4.59816V26.5727Z" fill="white"/>
<path d="M6.90186 0H2.21365C0.991085 0 0 0.991087 0 2.21365C0 3.43622 0.991086 4.42731 2.21365 4.42731H6.90186C13.2508 4.42731 18.4019 9.38697 18.4019 15.5001C18.4019 21.3646 13.6655 26.1646 7.67591 26.5461V30.9823C16.2088 30.592 23 23.8134 23 15.5001C23 6.93819 15.7941 0 6.90186 0Z" fill="white"/>
<defs>
<clipPath id="clip0_39_1125">
<rect width="75" height="23" fill="white" transform="translate(33 4)"/>
</clipPath>
</defs>
</svg>
