<svg width="28" height="27" viewBox="0 0 28 27" fill="none" xmlns="http://www.w3.org/2000/svg">
<path fill-rule="evenodd" clip-rule="evenodd" d="M1.10937 13.1866C1.10937 13.048 1.22758 12.9356 1.37341 12.9356L13.5563 12.9356L13.5563 1.35495C13.5563 1.21633 13.6745 1.10396 13.8203 1.10396C13.9661 1.10396 14.0844 1.21633 14.0844 1.35495L14.0844 12.9356H26.2672C26.4131 12.9356 26.5313 13.048 26.5313 13.1866C26.5313 13.3252 26.4131 13.4376 26.2672 13.4376H14.0844L14.0844 25.0183C14.0844 25.1569 13.9661 25.2693 13.8203 25.2693C13.6745 25.2693 13.5563 25.1569 13.5563 25.0183L13.5563 13.4376L1.37341 13.4376C1.22758 13.4376 1.10937 13.3252 1.10937 13.1866Z" stroke="white" stroke-width="2" stroke-linecap="round" stroke-linejoin="round"/>
</svg>
