<svg width="122" height="35" viewBox="0 0 122 35" fill="none" xmlns="http://www.w3.org/2000/svg">
<g clip-path="url(#clip0_39_3477)">
<path d="M48.1331 20.9922H39.7511C38.1794 20.9922 37.5682 19.9445 37.5682 18.8969C37.5682 17.8493 38.1794 16.7144 39.7511 16.7144H61.754C63.3256 16.7144 63.9368 17.8493 63.9368 18.8969C63.9368 19.9445 63.3256 20.9922 61.754 20.9922H53.8085V21.7779C53.8085 23.262 52.4988 24.4843 51.0144 24.4843C49.4428 24.4843 48.2204 23.262 48.2204 21.7779V20.9922H48.1331ZM44.6406 15.4048C40.5369 15.4048 38.5287 13.3096 38.5287 10.1667C38.5287 7.02384 40.5369 4.92859 44.6406 4.92859H57.0391C61.1428 4.92859 63.151 7.11114 63.151 10.1667C63.151 13.2223 61.1428 15.4048 57.0391 15.4048H44.6406ZM38.9652 26.3176V24.5716C38.9652 22.7382 40.3623 21.9525 41.9339 21.9525C43.5055 21.9525 44.8152 22.7382 44.8152 24.5716V25.5319C44.8152 26.143 44.9898 26.0557 45.601 26.0557H60.7935C62.5398 26.0557 63.151 27.1033 63.151 28.1509C63.151 29.2859 62.4525 30.2462 60.7935 30.2462H42.9816C39.8384 30.2462 38.9652 29.1986 38.9652 26.3176ZM55.5547 11.4762C56.9517 11.4762 57.301 10.9524 57.301 10.254C57.301 9.4683 56.8644 9.03179 55.5547 9.03179H46.0376C44.6406 9.03179 44.2913 9.4683 44.2913 10.254C44.2913 10.9524 44.7279 11.4762 46.0376 11.4762H55.5547Z" fill="#247100"/>
<path d="M73.3666 8.85732C72.8427 8.85732 72.6681 9.03193 72.6681 9.46844V9.90495C72.6681 10.4288 72.8427 10.5161 73.3666 10.5161H89.1702C90.5673 10.5161 91.1785 11.4764 91.1785 12.4367C91.1785 13.397 90.6546 14.2701 89.1702 14.2701H81.9233V15.8415H90.0434C91.615 15.8415 92.2262 16.8891 92.2262 17.8494C92.2262 18.8971 91.615 19.8574 90.0434 19.8574H68.0405C66.4689 19.8574 65.8577 18.8971 65.8577 17.8494C65.8577 16.8018 66.4689 15.8415 68.0405 15.8415H76.1606V14.2701H70.6599C67.6912 14.2701 66.9054 13.5716 66.9054 10.778V8.59542C66.9054 5.88905 67.6039 5.10333 70.6599 5.10333H88.9956C90.4799 5.10333 91.0038 6.06366 91.0038 7.02398C91.0038 7.9843 90.4799 8.94463 88.9956 8.94463H73.3666V8.85732ZM86.2016 21.0796C89.7814 21.0796 91.4404 23.0876 91.4404 25.7066C91.4404 28.3257 89.7814 30.3336 86.2016 30.3336H71.795C68.2151 30.3336 66.5562 28.3257 66.5562 25.7066C66.5562 23.0876 68.2151 21.0796 71.795 21.0796H86.2016ZM84.4553 26.5797C85.4158 26.5797 85.6777 26.1431 85.6777 25.6193C85.6777 25.0955 85.4158 24.7463 84.4553 24.7463H73.5412C72.5808 24.7463 72.3188 25.1828 72.3188 25.7066C72.3188 26.2304 72.5808 26.667 73.5412 26.667H84.4553V26.5797Z" fill="#247100"/>
<path d="M105.41 9.90489V10.4287C105.41 10.8652 105.41 11.3017 105.323 11.7382C108.554 11.8255 110.475 13.0478 111.26 15.5795C111.784 17.2383 110.475 18.8097 108.728 18.8097C107.593 18.8097 106.633 18.024 106.196 16.9764C105.76 16.016 104.974 15.4922 103.839 15.5795C102.18 17.7621 99.5605 18.9843 96.9411 19.0716C95.5441 19.1589 94.409 18.2859 94.3217 17.0637C94.2344 15.7541 94.9329 14.9684 96.068 14.7938C98.6001 14.3573 100.172 12.6986 100.172 10.4287V9.90489H96.6792C95.3695 9.90489 94.5837 8.68266 94.5837 7.72234C94.5837 6.76201 95.1949 5.53978 96.6792 5.53978H109.602C110.999 5.53978 111.697 6.76201 111.697 7.72234C111.697 8.68266 110.999 9.90489 109.602 9.90489H105.41ZM101.569 30.3336C97.6396 30.3336 95.806 28.151 95.806 25.1828C95.806 22.3018 97.6396 19.9446 101.569 19.9446H113.618C117.46 19.9446 119.381 22.2145 119.381 25.1828C119.381 28.151 117.46 30.3336 113.618 30.3336H101.569ZM112.046 26.4923C113.269 26.4923 113.618 25.7066 113.618 25.0955C113.618 24.4843 113.269 23.7859 112.046 23.7859H103.053C101.831 23.7859 101.481 24.4843 101.481 25.0955C101.481 25.7066 101.831 26.4923 103.053 26.4923H112.046ZM113.356 7.37313C113.356 5.62709 114.666 4.66676 116.15 4.66676C117.634 4.66676 118.944 5.62709 118.944 7.37313V9.46838H119.817C121.563 9.46838 122.087 10.6906 122.087 11.8255C122.087 12.9605 121.563 14.1827 119.817 14.1827H118.944V16.6272C118.944 18.024 117.722 19.1589 116.325 19.1589H116.063C114.578 19.1589 113.443 18.024 113.443 16.6272V7.37313H113.356Z" fill="#247100"/>
</g>
<path d="M7.93214 9.9972H2.49926C1.11896 9.9972 0 11.1162 0 12.4965C0 13.8768 1.11896 14.9957 2.49926 14.9957H14.9641C15.1759 14.9957 15.3242 14.7954 15.2394 14.6051C14.0533 11.9005 11.2257 9.9972 7.93214 9.9972Z" fill="#247100"/>
<path d="M14.9641 20.0044H2.49926C1.11896 20.0044 0 21.1233 0 22.5036C0 23.8839 1.11896 25.0029 2.49926 25.0029H7.93214C11.2257 25.0029 14.0533 23.0996 15.25 20.395C15.3242 20.2047 15.1759 20.0044 14.9641 20.0044Z" fill="#247100"/>
<path d="M5.28456 30.0015H2.49926C1.11896 30.0015 0 31.1204 0 32.5007C0 33.881 1.11896 35 2.49926 35H5.28456V30.0015Z" fill="#247100"/>
<path d="M7.93214 0H2.49929C1.11897 0 0 1.11897 0 2.49929C0 3.8796 1.11897 4.99857 2.49929 4.99857H7.93214C15.2289 4.99857 21.1488 10.5982 21.1488 17.5001C21.1488 24.1214 15.7054 29.5407 8.82173 29.9714V34.9801C18.6284 34.5393 26.4333 26.8861 26.4333 17.5001C26.4333 7.83344 18.1517 0 7.93214 0Z" fill="#247100"/>
<defs>
<clipPath id="clip0_39_3477">
<rect width="84.4317" height="25.6668" fill="white" transform="translate(37.5682 4.66676)"/>
</clipPath>
</defs>
</svg>