<svg width="13" height="15" viewBox="0 0 13 15" fill="none" xmlns="http://www.w3.org/2000/svg">
<path d="M10.7497 2.17333C9.62249 1.04616 8.09372 0.412926 6.49967 0.412926C4.90561 0.412926 3.37684 1.04616 2.24967 2.17333C1.1225 3.3005 0.489258 4.82927 0.489258 6.42333C0.489258 8.01739 1.1225 9.54616 2.24967 10.6733L5.98258 14.4133C6.04843 14.4797 6.12677 14.5324 6.21309 14.5684C6.29941 14.6043 6.39199 14.6229 6.4855 14.6229C6.57901 14.6229 6.67159 14.6043 6.75791 14.5684C6.84422 14.5324 6.92257 14.4797 6.98841 14.4133L10.7497 10.6379C11.8721 9.51544 12.5027 7.99304 12.5027 6.40563C12.5027 4.81821 11.8721 3.29581 10.7497 2.17333V2.17333ZM9.73675 9.625L6.49967 12.8763L3.26258 9.625C2.62306 8.98489 2.18767 8.16955 2.01145 7.28204C1.83523 6.39453 1.92609 5.4747 2.27255 4.63882C2.619 3.80294 3.2055 3.08854 3.9579 2.58592C4.7103 2.08331 5.59483 1.81505 6.49967 1.81505C7.4045 1.81505 8.28903 2.08331 9.04143 2.58592C9.79383 3.08854 10.3803 3.80294 10.7268 4.63882C11.0732 5.4747 11.1641 6.39453 10.9879 7.28204C10.8117 8.16955 10.3763 8.98489 9.73675 9.625V9.625ZM4.37467 4.24875C3.80284 4.82234 3.48174 5.59924 3.48174 6.40917C3.48174 7.2191 3.80284 7.996 4.37467 8.56958C4.7995 8.99514 5.34054 9.28577 5.92992 9.40499C6.51929 9.52422 7.13076 9.46675 7.68759 9.23978C8.24443 9.01281 8.72184 8.62645 9.05992 8.12918C9.39801 7.63191 9.58172 7.04587 9.588 6.44458C9.59119 6.0431 9.51385 5.64506 9.36056 5.27398C9.20726 4.90291 8.98112 4.56634 8.6955 4.28417C8.41477 3.99699 8.08001 3.76817 7.71051 3.61087C7.341 3.45357 6.94403 3.3709 6.54245 3.3676C6.14087 3.36431 5.7426 3.44047 5.37056 3.59169C4.99853 3.74291 4.66007 3.96622 4.37467 4.24875V4.24875ZM7.69675 7.56375C7.42832 7.83628 7.07356 8.0071 6.69313 8.04701C6.3127 8.08693 5.93021 7.99345 5.61107 7.78257C5.29192 7.57169 5.05594 7.25651 4.94346 6.89089C4.83099 6.52528 4.849 6.13195 4.99443 5.77815C5.13985 5.42435 5.40366 5.13205 5.74075 4.95123C6.07783 4.77041 6.46726 4.71229 6.84245 4.78681C7.21765 4.86134 7.5553 5.06387 7.79769 5.35979C8.04008 5.65572 8.17216 6.02665 8.17133 6.40917C8.16103 6.8464 7.9776 7.26167 7.66133 7.56375H7.69675Z" fill="white"/>
</svg>
