<svg width="39" height="42" viewBox="0 0 39 42" fill="none" xmlns="http://www.w3.org/2000/svg">
<path d="M29.25 14.0437C29.25 11.3024 28.2228 8.67339 26.3943 6.735C24.5658 4.79662 22.0859 3.70764 19.5 3.70764C16.9141 3.70764 14.4342 4.79662 12.6057 6.735C10.7772 8.67339 9.75 11.3024 9.75 14.0437C9.75 26.1024 4.875 29.5478 4.875 29.5478H34.125C34.125 29.5478 29.25 26.1024 29.25 14.0437Z" fill="#4E4E4E"/>
<path d="M22.311 36.4385C22.0253 36.9606 21.6152 37.394 21.1218 37.6952C20.6285 37.9965 20.0691 38.155 19.4997 38.155C18.9304 38.155 18.371 37.9965 17.8776 37.6952C17.3842 37.394 16.9742 36.9606 16.6885 36.4385" stroke="#4E4E4E" stroke-width="2" stroke-linecap="round" stroke-linejoin="round"/>
<ellipse cx="28.765" cy="8.35601" rx="6.45443" ry="6.8424" fill="#BB4430"/>
</svg>
