<svg width="39" height="39" viewBox="0 0 39 39" fill="none" xmlns="http://www.w3.org/2000/svg">
<path d="M29.25 13C29.25 10.4141 28.2228 7.93419 26.3943 6.10571C24.5658 4.27723 22.0859 3.25 19.5 3.25C16.9141 3.25 14.4342 4.27723 12.6057 6.10571C10.7772 7.93419 9.75 10.4141 9.75 13C9.75 24.375 4.875 27.625 4.875 27.625H34.125C34.125 27.625 29.25 24.375 29.25 13Z" fill="#4E4E4E"/>
<path d="M22.3113 34.125C22.0256 34.6175 21.6155 35.0263 21.1221 35.3105C20.6288 35.5947 20.0694 35.7442 19.5 35.7442C18.9306 35.7442 18.3713 35.5947 17.8779 35.3105C17.3845 35.0263 16.9745 34.6175 16.6888 34.125" stroke="#4E4E4E" stroke-width="2" stroke-linecap="round" stroke-linejoin="round"/>
<ellipse cx="28.7649" cy="7.63485" rx="6.45443" ry="6.45443" fill="#FE4020"/>
</svg>
