<svg width="38" height="30" viewBox="0 0 38 30" fill="none" xmlns="http://www.w3.org/2000/svg">
<path d="M19.5447 15.3882C20.4676 14.5732 21.2078 13.5651 21.7152 12.4324C22.2225 11.2997 22.4851 10.0689 22.4851 8.82353C22.4851 6.48338 21.5739 4.23909 19.9521 2.58435C18.3303 0.92962 16.1306 3.15725e-07 13.837 3.15725e-07C11.5434 3.15725e-07 9.34367 0.92962 7.72184 2.58435C6.1 4.23909 5.18886 6.48338 5.18886 8.82353C5.18885 10.0689 5.45142 11.2997 5.95876 12.4324C6.4661 13.5651 7.20633 14.5732 8.12922 15.3882C5.70799 16.5069 3.65376 18.3133 2.21215 20.5915C0.770538 22.8698 0.00254575 25.5235 0 28.2353C0 28.7033 0.182227 29.1522 0.506594 29.4831C0.830961 29.8141 1.2709 30 1.72962 30C2.18835 30 2.62828 29.8141 2.95265 29.4831C3.27702 29.1522 3.45924 28.7033 3.45924 28.2353C3.45924 25.4271 4.55261 22.734 6.49881 20.7483C8.44501 18.7626 11.0846 17.6471 13.837 17.6471C16.5893 17.6471 19.2289 18.7626 21.1751 20.7483C23.1213 22.734 24.2147 25.4271 24.2147 28.2353C24.2147 28.7033 24.3969 29.1522 24.7213 29.4831C25.0457 29.8141 25.4856 30 25.9443 30C26.403 30 26.843 29.8141 27.1673 29.4831C27.4917 29.1522 27.6739 28.7033 27.6739 28.2353C27.6714 25.5235 26.9034 22.8698 25.4618 20.5915C24.0202 18.3133 21.9659 16.5069 19.5447 15.3882ZM13.837 14.1176C12.8107 14.1176 11.8075 13.8072 10.9542 13.2254C10.1009 12.6437 9.43582 11.8169 9.04309 10.8495C8.65035 9.88213 8.5476 8.81766 8.74781 7.7907C8.94802 6.76374 9.44221 5.82042 10.1679 5.08002C10.8936 4.33963 11.8181 3.83541 12.8247 3.63114C13.8312 3.42686 14.8745 3.5317 15.8227 3.9324C16.7708 4.3331 17.5812 5.01166 18.1514 5.88228C18.7215 6.75289 19.0258 7.77645 19.0258 8.82353C19.0258 10.2276 18.4792 11.5742 17.5061 12.567C16.533 13.5599 15.2131 14.1176 13.837 14.1176ZM30.6835 14.6824C31.7904 13.4106 32.5134 11.8395 32.7656 10.1582C33.0178 8.47698 32.7883 6.75719 32.1048 5.20588C31.4213 3.65458 30.313 2.33787 28.9132 1.41428C27.5133 0.490676 25.8817 -0.000454588 24.2147 3.15725e-07C23.756 3.15725e-07 23.316 0.185924 22.9917 0.516871C22.6673 0.847817 22.4851 1.29668 22.4851 1.76471C22.4851 2.23274 22.6673 2.68159 22.9917 3.01254C23.316 3.34349 23.756 3.52941 24.2147 3.52941C25.5909 3.52941 26.9107 4.08718 27.8838 5.08002C28.8569 6.07286 29.4036 7.41944 29.4036 8.82353C29.4011 9.75042 29.1602 10.6604 28.7049 11.4625C28.2496 12.2646 27.5959 12.9307 26.8091 13.3941C26.5527 13.545 26.3385 13.7606 26.1871 14.0201C26.0357 14.2797 25.9521 14.5745 25.9443 14.8765C25.9371 15.1761 26.0047 15.4726 26.1409 15.7381C26.2771 16.0036 26.4773 16.2294 26.7227 16.3941L27.3972 16.8529L27.6221 16.9765C29.7069 17.9854 31.4658 19.5812 32.6915 21.5758C33.9173 23.5705 34.5588 25.8811 34.5405 28.2353C34.5405 28.7033 34.7228 29.1522 35.0471 29.4831C35.3715 29.8141 35.8114 30 36.2702 30C36.7289 30 37.1688 29.8141 37.4932 29.4831C37.8176 29.1522 37.9998 28.7033 37.9998 28.2353C38.0139 25.5272 37.3491 22.8604 36.0686 20.4883C34.7881 18.1162 32.9343 16.1176 30.6835 14.6824Z" fill="white"/>
</svg>
