<svg width="21" height="21" viewBox="0 0 21 21" fill="none" xmlns="http://www.w3.org/2000/svg">
<path fill-rule="evenodd" clip-rule="evenodd" d="M17.2205 8.25C17.2205 12.8063 13.3656 16.5 8.61027 16.5C3.85495 16.5 0 12.8063 0 8.25C0 3.69365 3.85495 0 8.61027 0C13.3656 0 17.2205 3.69365 17.2205 8.25ZM8.61027 13.5C11.6364 13.5 14.0895 11.1495 14.0895 8.25C14.0895 5.3505 11.6364 3 8.61027 3C5.58416 3 3.13101 5.3505 3.13101 8.25C3.13101 11.1495 5.58416 13.5 8.61027 13.5Z" fill="white"/>
<path fill-rule="evenodd" clip-rule="evenodd" d="M18.786 21L12.524 15L14.738 12.8787L21 18.8787L18.786 21Z" fill="white"/>
</svg>
