<svg width="20" height="20" viewBox="0 0 20 20" fill="none" xmlns="http://www.w3.org/2000/svg">
<path d="M10 0C8.32774 0.00171061 6.6826 0.422765 5.21513 1.22463C3.74765 2.0265 2.5047 3.18359 1.6 4.59V4.59C0.327569 6.58555 -0.195851 8.96773 0.122828 11.3129C0.441507 13.658 1.58163 15.8142 3.34043 17.3978C5.09924 18.9815 7.36272 19.89 9.72834 19.9618C12.094 20.0336 14.4084 19.264 16.26 17.79V17.79C17.8715 16.4929 19.0411 14.7278 19.6076 12.7382C20.174 10.7485 20.1095 8.63211 19.4228 6.68067C18.7361 4.72923 17.4611 3.03878 15.7735 1.84228C14.0859 0.645776 12.0687 0.00211688 10 0V0ZM12 2.26C13.3818 2.61769 14.6428 3.33858 15.6521 4.34789C16.6614 5.3572 17.3823 6.61817 17.74 8C16.068 8.04709 14.436 8.52223 13 9.38C12.2789 8.56199 11.4746 7.82132 10.6 7.17C11.4811 5.68096 11.9633 3.98983 12 2.26V2.26ZM10 2C9.99671 3.43503 9.60261 4.84205 8.86 6.07C8.71 5.99 8.57 5.9 8.42 5.83C7.13237 5.15059 5.75554 4.65574 4.33 4.36C5.07305 3.61252 5.95647 3.01923 6.92952 2.61423C7.90256 2.20922 8.94604 2.00048 10 2V2ZM3 6.16C4.56842 6.37788 6.08742 6.86504 7.49 7.6L7.62 7.68C6.88192 8.4174 6.00557 9.0019 5.04118 9.40001C4.0768 9.79812 3.04333 10.002 2 10C2.00557 8.65633 2.34948 7.33571 3 6.16V6.16ZM8 17.74C6.61817 17.3823 5.3572 16.6614 4.34789 15.6521C3.33858 14.6428 2.6177 13.3818 2.26 12C3.59566 11.9703 4.91149 11.6707 6.12825 11.119C7.34502 10.5673 8.43753 9.77509 9.34 8.79C10.0629 9.32439 10.7327 9.92718 11.34 10.59C10.3274 11.4929 9.50906 12.5924 8.93486 13.8216C8.36067 15.0508 8.04259 16.384 8 17.74V17.74ZM10 18C10.0022 16.9014 10.2306 15.815 10.671 14.8085C11.1115 13.802 11.7545 12.8971 12.56 12.15C12.62 12.23 12.68 12.3 12.73 12.38C13.568 13.6632 14.1896 15.0753 14.57 16.56C13.2316 17.4997 11.6354 18.0027 10 18ZM16.21 15C15.7757 13.677 15.1706 12.4163 14.41 11.25L14.2 11C15.3627 10.3532 16.6695 10.0093 18 10C17.9901 11.8219 17.3586 13.5858 16.21 15Z" fill="white"/>
</svg>
