<svg width="72" height="68" viewBox="0 0 72 68" fill="none" xmlns="http://www.w3.org/2000/svg">
<path d="M1.47073 67.2525C2.28299 67.2525 2.94146 66.594 2.94146 65.7818C2.94146 64.9695 2.28299 64.311 1.47073 64.311C0.658467 64.311 0 64.9695 0 65.7818C0 66.594 0.658467 67.2525 1.47073 67.2525Z" fill="#247100" fill-opacity="0.49"/>
<path d="M1.47073 54.542C2.28299 54.542 2.94146 53.8836 2.94146 53.0713C2.94146 52.2591 2.28299 51.6006 1.47073 51.6006C0.658467 51.6006 0 52.2591 0 53.0713C0 53.8836 0.658467 54.542 1.47073 54.542Z" fill="#247100" fill-opacity="0.49"/>
<path d="M1.47073 41.8299C2.28299 41.8299 2.94146 41.1714 2.94146 40.3592C2.94146 39.5469 2.28299 38.8884 1.47073 38.8884C0.658467 38.8884 0 39.5469 0 40.3592C0 41.1714 0.658467 41.8299 1.47073 41.8299Z" fill="#247100" fill-opacity="0.49"/>
<path d="M1.47073 29.2237C2.28299 29.2237 2.94146 28.5652 2.94146 27.753C2.94146 26.9407 2.28299 26.2822 1.47073 26.2822C0.658467 26.2822 0 26.9407 0 27.753C0 28.5652 0.658467 29.2237 1.47073 29.2237Z" fill="#247100" fill-opacity="0.49"/>
<path d="M1.47073 16.5127C2.28299 16.5127 2.94146 15.8543 2.94146 15.042C2.94146 14.2298 2.28299 13.5713 1.47073 13.5713C0.658467 13.5713 0 14.2298 0 15.042C0 15.8543 0.658467 16.5127 1.47073 16.5127Z" fill="#247100" fill-opacity="0.49"/>
<path d="M1.47317 3.90703C2.28543 3.90703 2.9439 3.24857 2.9439 2.4363C2.9439 1.62404 2.28543 0.965576 1.47317 0.965576C0.660909 0.965576 0.00244141 1.62404 0.00244141 2.4363C0.00244141 3.24857 0.660909 3.90703 1.47317 3.90703Z" fill="#247100" fill-opacity="0.49"/>
<path d="M69.5466 67.2518C70.3588 67.2518 71.0173 66.5933 71.0173 65.781C71.0173 64.9688 70.3588 64.3103 69.5466 64.3103C68.7343 64.3103 68.0759 64.9688 68.0759 65.781C68.0759 66.5933 68.7343 67.2518 69.5466 67.2518Z" fill="#247100" fill-opacity="0.49"/>
<path d="M69.5466 54.5413C70.3588 54.5413 71.0173 53.8828 71.0173 53.0706C71.0173 52.2583 70.3588 51.5999 69.5466 51.5999C68.7343 51.5999 68.0759 52.2583 68.0759 53.0706C68.0759 53.8828 68.7343 54.5413 69.5466 54.5413Z" fill="#247100" fill-opacity="0.49"/>
<path d="M69.5466 41.8289C70.3588 41.8289 71.0173 41.1704 71.0173 40.3582C71.0173 39.5459 70.3588 38.8875 69.5466 38.8875C68.7343 38.8875 68.0759 39.5459 68.0759 40.3582C68.0759 41.1704 68.7343 41.8289 69.5466 41.8289Z" fill="#247100" fill-opacity="0.49"/>
<path d="M69.5466 29.2227C70.3588 29.2227 71.0173 28.5642 71.0173 27.752C71.0173 26.9397 70.3588 26.2812 69.5466 26.2812C68.7343 26.2812 68.0759 26.9397 68.0759 27.752C68.0759 28.5642 68.7343 29.2227 69.5466 29.2227Z" fill="#247100" fill-opacity="0.49"/>
<path d="M69.5466 16.512C70.3588 16.512 71.0173 15.8535 71.0173 15.0413C71.0173 14.229 70.3588 13.5706 69.5466 13.5706C68.7343 13.5706 68.0759 14.229 68.0759 15.0413C68.0759 15.8535 68.7343 16.512 69.5466 16.512Z" fill="#247100" fill-opacity="0.49"/>
<path d="M69.5468 3.90606C70.3591 3.90606 71.0176 3.24759 71.0176 2.43533C71.0176 1.62307 70.3591 0.9646 69.5468 0.9646C68.7346 0.9646 68.0761 1.62307 68.0761 2.43533C68.0761 3.24759 68.7346 3.90606 69.5468 3.90606Z" fill="#247100" fill-opacity="0.49"/>
<path d="M55.9949 67.2518C56.8072 67.2518 57.4656 66.5933 57.4656 65.781C57.4656 64.9688 56.8072 64.3103 55.9949 64.3103C55.1826 64.3103 54.5242 64.9688 54.5242 65.781C54.5242 66.5933 55.1826 67.2518 55.9949 67.2518Z" fill="#247100" fill-opacity="0.49"/>
<path d="M55.9949 54.5413C56.8072 54.5413 57.4656 53.8828 57.4656 53.0706C57.4656 52.2583 56.8072 51.5999 55.9949 51.5999C55.1826 51.5999 54.5242 52.2583 54.5242 53.0706C54.5242 53.8828 55.1826 54.5413 55.9949 54.5413Z" fill="#247100" fill-opacity="0.49"/>
<path d="M55.9949 41.8289C56.8072 41.8289 57.4656 41.1704 57.4656 40.3582C57.4656 39.5459 56.8072 38.8875 55.9949 38.8875C55.1826 38.8875 54.5242 39.5459 54.5242 40.3582C54.5242 41.1704 55.1826 41.8289 55.9949 41.8289Z" fill="#247100" fill-opacity="0.49"/>
<path d="M55.9949 29.2227C56.8072 29.2227 57.4656 28.5642 57.4656 27.752C57.4656 26.9397 56.8072 26.2812 55.9949 26.2812C55.1826 26.2812 54.5242 26.9397 54.5242 27.752C54.5242 28.5642 55.1826 29.2227 55.9949 29.2227Z" fill="#247100" fill-opacity="0.49"/>
<path d="M55.9949 16.512C56.8072 16.512 57.4656 15.8535 57.4656 15.0413C57.4656 14.229 56.8072 13.5706 55.9949 13.5706C55.1826 13.5706 54.5242 14.229 54.5242 15.0413C54.5242 15.8535 55.1826 16.512 55.9949 16.512Z" fill="#247100" fill-opacity="0.49"/>
<path d="M55.9943 3.90606C56.8065 3.90606 57.465 3.24759 57.465 2.43533C57.465 1.62307 56.8065 0.9646 55.9943 0.9646C55.182 0.9646 54.5236 1.62307 54.5236 2.43533C54.5236 3.24759 55.182 3.90606 55.9943 3.90606Z" fill="#247100" fill-opacity="0.49"/>
<path d="M42.3381 67.2518C43.1504 67.2518 43.8088 66.5933 43.8088 65.781C43.8088 64.9688 43.1504 64.3103 42.3381 64.3103C41.5258 64.3103 40.8674 64.9688 40.8674 65.781C40.8674 66.5933 41.5258 67.2518 42.3381 67.2518Z" fill="#247100" fill-opacity="0.49"/>
<path d="M42.3381 54.5413C43.1504 54.5413 43.8088 53.8828 43.8088 53.0706C43.8088 52.2583 43.1504 51.5999 42.3381 51.5999C41.5258 51.5999 40.8674 52.2583 40.8674 53.0706C40.8674 53.8828 41.5258 54.5413 42.3381 54.5413Z" fill="#247100" fill-opacity="0.49"/>
<path d="M42.3381 41.8289C43.1504 41.8289 43.8088 41.1704 43.8088 40.3582C43.8088 39.5459 43.1504 38.8875 42.3381 38.8875C41.5258 38.8875 40.8674 39.5459 40.8674 40.3582C40.8674 41.1704 41.5258 41.8289 42.3381 41.8289Z" fill="#247100" fill-opacity="0.49"/>
<path d="M42.3381 29.2227C43.1504 29.2227 43.8088 28.5642 43.8088 27.752C43.8088 26.9397 43.1504 26.2812 42.3381 26.2812C41.5258 26.2812 40.8674 26.9397 40.8674 27.752C40.8674 28.5642 41.5258 29.2227 42.3381 29.2227Z" fill="#247100" fill-opacity="0.49"/>
<path d="M42.3381 16.512C43.1504 16.512 43.8088 15.8535 43.8088 15.0413C43.8088 14.229 43.1504 13.5706 42.3381 13.5706C41.5258 13.5706 40.8674 14.229 40.8674 15.0413C40.8674 15.8535 41.5258 16.512 42.3381 16.512Z" fill="#247100" fill-opacity="0.49"/>
<path d="M42.3375 3.90606C43.1498 3.90606 43.8083 3.24759 43.8083 2.43533C43.8083 1.62307 43.1498 0.9646 42.3375 0.9646C41.5253 0.9646 40.8668 1.62307 40.8668 2.43533C40.8668 3.24759 41.5253 3.90606 42.3375 3.90606Z" fill="#247100" fill-opacity="0.49"/>
<path d="M28.6815 67.2518C29.4937 67.2518 30.1522 66.5933 30.1522 65.781C30.1522 64.9688 29.4937 64.3103 28.6815 64.3103C27.8692 64.3103 27.2108 64.9688 27.2108 65.781C27.2108 66.5933 27.8692 67.2518 28.6815 67.2518Z" fill="#247100" fill-opacity="0.49"/>
<path d="M28.6815 54.5413C29.4937 54.5413 30.1522 53.8828 30.1522 53.0706C30.1522 52.2583 29.4937 51.5999 28.6815 51.5999C27.8692 51.5999 27.2108 52.2583 27.2108 53.0706C27.2108 53.8828 27.8692 54.5413 28.6815 54.5413Z" fill="#247100" fill-opacity="0.49"/>
<path d="M28.6815 41.8289C29.4937 41.8289 30.1522 41.1704 30.1522 40.3582C30.1522 39.5459 29.4937 38.8875 28.6815 38.8875C27.8692 38.8875 27.2108 39.5459 27.2108 40.3582C27.2108 41.1704 27.8692 41.8289 28.6815 41.8289Z" fill="#247100" fill-opacity="0.49"/>
<path d="M28.6815 29.2227C29.4937 29.2227 30.1522 28.5642 30.1522 27.752C30.1522 26.9397 29.4937 26.2812 28.6815 26.2812C27.8692 26.2812 27.2108 26.9397 27.2108 27.752C27.2108 28.5642 27.8692 29.2227 28.6815 29.2227Z" fill="#247100" fill-opacity="0.49"/>
<path d="M28.6815 16.512C29.4937 16.512 30.1522 15.8535 30.1522 15.0413C30.1522 14.229 29.4937 13.5706 28.6815 13.5706C27.8692 13.5706 27.2108 14.229 27.2108 15.0413C27.2108 15.8535 27.8692 16.512 28.6815 16.512Z" fill="#247100" fill-opacity="0.49"/>
<path d="M28.6808 3.90606C29.493 3.90606 30.1515 3.24759 30.1515 2.43533C30.1515 1.62307 29.493 0.9646 28.6808 0.9646C27.8685 0.9646 27.21 1.62307 27.21 2.43533C27.21 3.24759 27.8685 3.90606 28.6808 3.90606Z" fill="#247100" fill-opacity="0.49"/>
<path d="M15.0247 67.2518C15.837 67.2518 16.4955 66.5933 16.4955 65.781C16.4955 64.9688 15.837 64.3103 15.0247 64.3103C14.2125 64.3103 13.554 64.9688 13.554 65.781C13.554 66.5933 14.2125 67.2518 15.0247 67.2518Z" fill="#247100" fill-opacity="0.49"/>
<path d="M15.0247 54.5413C15.837 54.5413 16.4955 53.8828 16.4955 53.0706C16.4955 52.2583 15.837 51.5999 15.0247 51.5999C14.2125 51.5999 13.554 52.2583 13.554 53.0706C13.554 53.8828 14.2125 54.5413 15.0247 54.5413Z" fill="#247100" fill-opacity="0.49"/>
<path d="M15.0247 41.8289C15.837 41.8289 16.4955 41.1704 16.4955 40.3582C16.4955 39.5459 15.837 38.8875 15.0247 38.8875C14.2125 38.8875 13.554 39.5459 13.554 40.3582C13.554 41.1704 14.2125 41.8289 15.0247 41.8289Z" fill="#247100" fill-opacity="0.49"/>
<path d="M15.0247 29.2227C15.837 29.2227 16.4955 28.5642 16.4955 27.752C16.4955 26.9397 15.837 26.2812 15.0247 26.2812C14.2125 26.2812 13.554 26.9397 13.554 27.752C13.554 28.5642 14.2125 29.2227 15.0247 29.2227Z" fill="#247100" fill-opacity="0.49"/>
<path d="M15.0247 16.512C15.837 16.512 16.4955 15.8535 16.4955 15.0413C16.4955 14.229 15.837 13.5706 15.0247 13.5706C14.2125 13.5706 13.554 14.229 13.554 15.0413C13.554 15.8535 14.2125 16.512 15.0247 16.512Z" fill="#247100" fill-opacity="0.49"/>
<path d="M15.024 3.90606C15.8363 3.90606 16.4947 3.24759 16.4947 2.43533C16.4947 1.62307 15.8363 0.9646 15.024 0.9646C14.2118 0.9646 13.5533 1.62307 13.5533 2.43533C13.5533 3.24759 14.2118 3.90606 15.024 3.90606Z" fill="#247100" fill-opacity="0.49"/>
</svg>
