<svg width="192" height="199" viewBox="0 0 192 199" fill="none" xmlns="http://www.w3.org/2000/svg">
<g opacity="0.3">
<path d="M4.4111 198.815C6.84728 198.815 8.8222 196.84 8.8222 194.404C8.8222 191.967 6.84728 189.993 4.4111 189.993C1.97492 189.993 0 191.967 0 194.404C0 196.84 1.97492 198.815 4.4111 198.815Z" fill="#247100" fill-opacity="0.49"/>
<path d="M4.4111 160.693C6.84728 160.693 8.8222 158.718 8.8222 156.282C8.8222 153.846 6.84728 151.871 4.4111 151.871C1.97492 151.871 0 153.846 0 156.282C0 158.718 1.97492 160.693 4.4111 160.693Z" fill="#247100" fill-opacity="0.49"/>
<path d="M4.4111 122.566C6.84728 122.566 8.8222 120.591 8.8222 118.155C8.8222 115.718 6.84728 113.744 4.4111 113.744C1.97492 113.744 0 115.718 0 118.155C0 120.591 1.97492 122.566 4.4111 122.566Z" fill="#247100" fill-opacity="0.49"/>
<path d="M4.4111 84.7564C6.84728 84.7564 8.8222 82.7815 8.8222 80.3453C8.8222 77.9091 6.84728 75.9342 4.4111 75.9342C1.97492 75.9342 0 77.9091 0 80.3453C0 82.7815 1.97492 84.7564 4.4111 84.7564Z" fill="#247100" fill-opacity="0.49"/>
<path d="M4.4111 46.633C6.84728 46.633 8.8222 44.6581 8.8222 42.2219C8.8222 39.7857 6.84728 37.8108 4.4111 37.8108C1.97492 37.8108 0 39.7857 0 42.2219C0 44.6581 1.97492 46.633 4.4111 46.633Z" fill="#247100" fill-opacity="0.49"/>
<path d="M4.41842 8.82513C6.85461 8.82513 8.82952 6.85021 8.82952 4.41403C8.82952 1.97785 6.85461 0.00292969 4.41842 0.00292969C1.98224 0.00292969 0.00732422 1.97785 0.00732422 4.41403C0.00732422 6.85021 1.98224 8.82513 4.41842 8.82513Z" fill="#247100" fill-opacity="0.49"/>
<path d="M167.943 198.813C170.38 198.813 172.354 196.838 172.354 194.401C172.354 191.965 170.38 189.99 167.943 189.99C165.507 189.99 163.532 191.965 163.532 194.401C163.532 196.838 165.507 198.813 167.943 198.813Z" fill="#247100" fill-opacity="0.49"/>
<path d="M167.943 160.691C170.38 160.691 172.354 158.716 172.354 156.28C172.354 153.843 170.38 151.868 167.943 151.868C165.507 151.868 163.532 153.843 163.532 156.28C163.532 158.716 165.507 160.691 167.943 160.691Z" fill="#247100" fill-opacity="0.49"/>
<path d="M167.943 122.563C170.38 122.563 172.354 120.588 172.354 118.152C172.354 115.716 170.38 113.741 167.943 113.741C165.507 113.741 163.532 115.716 163.532 118.152C163.532 120.588 165.507 122.563 167.943 122.563Z" fill="#247100" fill-opacity="0.49"/>
<path d="M167.943 84.7535C170.38 84.7535 172.354 82.7786 172.354 80.3424C172.354 77.9062 170.38 75.9313 167.943 75.9313C165.507 75.9313 163.532 77.9062 163.532 80.3424C163.532 82.7786 165.507 84.7535 167.943 84.7535Z" fill="#247100" fill-opacity="0.49"/>
<path d="M167.943 46.6308C170.38 46.6308 172.354 44.6559 172.354 42.2197C172.354 39.7835 170.38 37.8086 167.943 37.8086C165.507 37.8086 163.532 39.7835 163.532 42.2197C163.532 44.6559 165.507 46.6308 167.943 46.6308Z" fill="#247100" fill-opacity="0.49"/>
<path d="M167.942 8.8222C170.378 8.8222 172.353 6.84728 172.353 4.4111C172.353 1.97492 170.378 0 167.942 0C165.505 0 163.531 1.97492 163.531 4.4111C163.531 6.84728 165.505 8.8222 167.942 8.8222Z" fill="#247100" fill-opacity="0.49"/>
<path d="M126.983 198.813C129.419 198.813 131.394 196.838 131.394 194.401C131.394 191.965 129.419 189.99 126.983 189.99C124.547 189.99 122.572 191.965 122.572 194.401C122.572 196.838 124.547 198.813 126.983 198.813Z" fill="#247100" fill-opacity="0.49"/>
<path d="M126.983 160.691C129.419 160.691 131.394 158.716 131.394 156.28C131.394 153.843 129.419 151.868 126.983 151.868C124.547 151.868 122.572 153.843 122.572 156.28C122.572 158.716 124.547 160.691 126.983 160.691Z" fill="#247100" fill-opacity="0.49"/>
<path d="M126.983 122.563C129.419 122.563 131.394 120.588 131.394 118.152C131.394 115.716 129.419 113.741 126.983 113.741C124.547 113.741 122.572 115.716 122.572 118.152C122.572 120.588 124.547 122.563 126.983 122.563Z" fill="#247100" fill-opacity="0.49"/>
<path d="M126.983 84.7535C129.419 84.7535 131.394 82.7786 131.394 80.3424C131.394 77.9062 129.419 75.9313 126.983 75.9313C124.547 75.9313 122.572 77.9062 122.572 80.3424C122.572 82.7786 124.547 84.7535 126.983 84.7535Z" fill="#247100" fill-opacity="0.49"/>
<path d="M126.983 46.6308C129.419 46.6308 131.394 44.6559 131.394 42.2197C131.394 39.7835 129.419 37.8086 126.983 37.8086C124.547 37.8086 122.572 39.7835 122.572 42.2197C122.572 44.6559 124.547 46.6308 126.983 46.6308Z" fill="#247100" fill-opacity="0.49"/>
<path d="M126.981 8.8222C129.418 8.8222 131.393 6.84728 131.393 4.4111C131.393 1.97492 129.418 0 126.981 0C124.545 0 122.57 1.97492 122.57 4.4111C122.57 6.84728 124.545 8.8222 126.981 8.8222Z" fill="#247100" fill-opacity="0.49"/>
<path d="M86.0235 198.813C88.4597 198.813 90.4346 196.838 90.4346 194.401C90.4346 191.965 88.4597 189.99 86.0235 189.99C83.5873 189.99 81.6124 191.965 81.6124 194.401C81.6124 196.838 83.5873 198.813 86.0235 198.813Z" fill="#247100" fill-opacity="0.49"/>
<path d="M86.0235 160.691C88.4597 160.691 90.4346 158.716 90.4346 156.28C90.4346 153.843 88.4597 151.868 86.0235 151.868C83.5873 151.868 81.6124 153.843 81.6124 156.28C81.6124 158.716 83.5873 160.691 86.0235 160.691Z" fill="#247100" fill-opacity="0.49"/>
<path d="M86.0235 122.563C88.4597 122.563 90.4346 120.588 90.4346 118.152C90.4346 115.716 88.4597 113.741 86.0235 113.741C83.5873 113.741 81.6124 115.716 81.6124 118.152C81.6124 120.588 83.5873 122.563 86.0235 122.563Z" fill="#247100" fill-opacity="0.49"/>
<path d="M86.0235 84.7535C88.4597 84.7535 90.4346 82.7786 90.4346 80.3424C90.4346 77.9062 88.4597 75.9313 86.0235 75.9313C83.5873 75.9313 81.6124 77.9062 81.6124 80.3424C81.6124 82.7786 83.5873 84.7535 86.0235 84.7535Z" fill="#247100" fill-opacity="0.49"/>
<path d="M86.0235 46.6308C88.4597 46.6308 90.4346 44.6559 90.4346 42.2197C90.4346 39.7835 88.4597 37.8086 86.0235 37.8086C83.5873 37.8086 81.6124 39.7835 81.6124 42.2197C81.6124 44.6559 83.5873 46.6308 86.0235 46.6308Z" fill="#247100" fill-opacity="0.49"/>
<path d="M86.0213 8.8222C88.4575 8.8222 90.4324 6.84728 90.4324 4.4111C90.4324 1.97492 88.4575 0 86.0213 0C83.5851 0 81.6102 1.97492 81.6102 4.4111C81.6102 6.84728 83.5851 8.8222 86.0213 8.8222Z" fill="#247100" fill-opacity="0.49"/>
<path d="M45.0633 198.813C47.4995 198.813 49.4744 196.838 49.4744 194.401C49.4744 191.965 47.4995 189.99 45.0633 189.99C42.6271 189.99 40.6522 191.965 40.6522 194.401C40.6522 196.838 42.6271 198.813 45.0633 198.813Z" fill="#247100" fill-opacity="0.49"/>
<path d="M45.0633 160.691C47.4995 160.691 49.4744 158.716 49.4744 156.28C49.4744 153.843 47.4995 151.868 45.0633 151.868C42.6271 151.868 40.6522 153.843 40.6522 156.28C40.6522 158.716 42.6271 160.691 45.0633 160.691Z" fill="#247100" fill-opacity="0.49"/>
<path d="M45.0633 122.563C47.4995 122.563 49.4744 120.588 49.4744 118.152C49.4744 115.716 47.4995 113.741 45.0633 113.741C42.6271 113.741 40.6522 115.716 40.6522 118.152C40.6522 120.588 42.6271 122.563 45.0633 122.563Z" fill="#247100" fill-opacity="0.49"/>
<path d="M45.0633 84.7535C47.4995 84.7535 49.4744 82.7786 49.4744 80.3424C49.4744 77.9062 47.4995 75.9313 45.0633 75.9313C42.6271 75.9313 40.6522 77.9062 40.6522 80.3424C40.6522 82.7786 42.6271 84.7535 45.0633 84.7535Z" fill="#247100" fill-opacity="0.49"/>
<path d="M45.0633 46.6308C47.4995 46.6308 49.4744 44.6559 49.4744 42.2197C49.4744 39.7835 47.4995 37.8086 45.0633 37.8086C42.6271 37.8086 40.6522 39.7835 40.6522 42.2197C40.6522 44.6559 42.6271 46.6308 45.0633 46.6308Z" fill="#247100" fill-opacity="0.49"/>
<path d="M45.0611 8.8222C47.4973 8.8222 49.4722 6.84728 49.4722 4.4111C49.4722 1.97492 47.4973 0 45.0611 0C42.6249 0 40.65 1.97492 40.65 4.4111C40.65 6.84728 42.6249 8.8222 45.0611 8.8222Z" fill="#247100" fill-opacity="0.49"/>
</g>
</svg>
