<svg width="24" height="24" viewBox="0 0 24 24" fill="none" xmlns="http://www.w3.org/2000/svg">
<circle cx="12" cy="12" r="12" fill="#FEE500"/>
<path d="M12.0347 5.7915C8.30125 5.7915 5.2904 8.20016 5.2904 11.1243C5.2904 13.0223 6.54291 14.6843 8.42168 15.6333L7.78579 18.0083C7.7738 18.0439 7.77196 18.0821 7.78047 18.1187C7.78897 18.1553 7.8075 18.1888 7.83397 18.2154C7.87256 18.2495 7.92221 18.2683 7.97367 18.2684C8.01633 18.265 8.05681 18.2481 8.08928 18.2202L10.8255 16.3752C11.2294 16.431 11.6366 16.4599 12.0443 16.4619C15.773 16.4619 18.7886 14.0532 18.7886 11.1243C18.7886 8.19534 15.7633 5.7915 12.0347 5.7915Z" fill="#392020"/>
<path d="M7.65068 10.2813H6.91363C6.82227 10.2839 6.73205 10.2605 6.65349 10.2138C6.61861 10.192 6.58863 10.1631 6.56541 10.1292C6.5422 10.0952 6.52627 10.0567 6.5186 10.0163C6.51626 9.99067 6.51626 9.96491 6.5186 9.93927C6.51632 9.8913 6.52563 9.84345 6.54575 9.79984C6.56588 9.75624 6.59623 9.71814 6.63422 9.68876C6.71821 9.62794 6.81957 9.59581 6.92326 9.5972H9.14406C9.23614 9.59396 9.32698 9.61921 9.4042 9.66947C9.4399 9.69036 9.47052 9.71894 9.49384 9.75309C9.51717 9.78725 9.53262 9.82615 9.53908 9.867C9.54144 9.89103 9.54144 9.91524 9.53908 9.93927C9.54136 9.98794 9.53206 10.0364 9.51197 10.0808C9.49187 10.1252 9.46154 10.1642 9.42347 10.1945C9.34153 10.2553 9.24114 10.286 9.13924 10.2813H8.42628V12.8152C8.42917 12.8692 8.42082 12.9232 8.40174 12.9738C8.38267 13.0243 8.35329 13.0704 8.31548 13.1091C8.27921 13.146 8.23562 13.175 8.1875 13.194C8.13938 13.2131 8.08779 13.2219 8.03607 13.2199C7.9456 13.2224 7.85704 13.1935 7.78557 13.138C7.71752 13.0838 7.67134 13.0068 7.6555 12.9212C7.65074 12.886 7.65074 12.8504 7.6555 12.8152L7.65068 10.2813Z" fill="#FEE500"/>
<path d="M9.75174 9.78501C9.77292 9.70574 9.82268 9.63709 9.89144 9.59231C9.9647 9.55078 10.0482 9.53075 10.1323 9.5345H10.3154C10.4046 9.5313 10.493 9.55299 10.5707 9.59713C10.653 9.65247 10.7114 9.73672 10.7345 9.83318L11.6979 12.555C11.7229 12.626 11.7438 12.6984 11.7606 12.7718C11.7622 12.8023 11.7622 12.8328 11.7606 12.8633C11.7622 12.9103 11.7536 12.957 11.7353 13.0003C11.717 13.0435 11.6894 13.0823 11.6546 13.1138C11.6208 13.1484 11.5803 13.1757 11.5356 13.1939C11.4908 13.2122 11.4428 13.2209 11.3945 13.2198C11.3202 13.2272 11.2455 13.2094 11.1826 13.1692C11.1197 13.129 11.0721 13.0687 11.0476 12.9982L10.8453 12.4057H9.57831L9.37598 12.9982C9.35205 13.0701 9.30392 13.1315 9.2398 13.1719C9.17567 13.2123 9.09952 13.2292 9.02431 13.2198C8.94285 13.2219 8.86306 13.1964 8.7979 13.1475C8.73441 13.097 8.69158 13.0251 8.67746 12.9452C8.67491 12.918 8.67491 12.8905 8.67746 12.8633C8.66919 12.8155 8.66919 12.7666 8.67746 12.7188C8.67746 12.6658 8.71119 12.608 8.73046 12.555L9.75174 9.78501ZM10.2335 10.4161L9.77582 11.8613H10.6863L10.2335 10.4161Z" fill="#FEE500"/>
<path d="M11.8709 9.93928C11.866 9.83117 11.9041 9.72553 11.9769 9.64543C12.0139 9.60811 12.0583 9.57895 12.1072 9.55987C12.1562 9.54078 12.2086 9.53215 12.2611 9.53458C12.3513 9.53353 12.4394 9.56234 12.5116 9.6165C12.5785 9.67301 12.623 9.75161 12.6369 9.83808C12.6416 9.87163 12.6416 9.90573 12.6369 9.93928V12.4732H13.9616C14.0535 12.472 14.1437 12.497 14.2218 12.5454C14.2568 12.5671 14.287 12.5958 14.3102 12.6299C14.3335 12.6639 14.3493 12.7024 14.3567 12.743C14.3567 12.743 14.3567 12.7911 14.3567 12.8152C14.3589 12.8632 14.3496 12.911 14.3295 12.9546C14.3094 12.9982 14.279 13.0364 14.241 13.0657C14.1571 13.1266 14.0557 13.1586 13.952 13.1572H12.3237C12.22 13.1639 12.1169 13.1369 12.0299 13.0802C11.952 13.022 11.9001 12.9355 11.8854 12.8393C11.8818 12.7864 11.8818 12.7333 11.8854 12.6803L11.8709 9.93928Z" fill="#FEE500"/>
<path d="M14.4434 9.9393C14.4406 9.83151 14.4784 9.72659 14.5494 9.64545C14.6216 9.57985 14.7142 9.54111 14.8117 9.53584C14.9091 9.53057 15.0053 9.55908 15.0842 9.61652C15.1525 9.67253 15.1987 9.7511 15.2142 9.8381C15.2166 9.87178 15.2166 9.90563 15.2142 9.9393V11.1195L16.433 9.71284C16.48 9.66486 16.5298 9.61985 16.5824 9.578C16.6318 9.54854 16.6886 9.53348 16.7461 9.5346C16.8303 9.53414 16.9127 9.55936 16.9822 9.60688C17.0149 9.62893 17.0429 9.65739 17.0644 9.6905C17.086 9.72361 17.1006 9.7607 17.1074 9.79958C17.1094 9.80912 17.1094 9.81898 17.1074 9.82852C17.1051 9.83963 17.1051 9.85109 17.1074 9.86221C17.1073 9.9129 17.094 9.96271 17.0689 10.0068C17.0433 10.0534 17.0126 10.097 16.9774 10.1368L16.1777 11.0136L17.1412 12.5069V12.5551C17.1912 12.6241 17.2302 12.7006 17.2568 12.7816V12.8056C17.2624 12.8614 17.2543 12.9178 17.2333 12.9698C17.2124 13.0218 17.1791 13.0679 17.1363 13.1043C17.056 13.165 16.9577 13.1973 16.8569 13.1958C16.79 13.1986 16.7235 13.1836 16.6642 13.1524C16.6001 13.1094 16.5472 13.0516 16.5101 12.9838L15.6141 11.5386L15.1853 11.9867V12.7911C15.1882 12.8989 15.1504 13.0039 15.0793 13.085C15.0413 13.1222 14.996 13.1513 14.9463 13.1703C14.8966 13.1894 14.8435 13.1981 14.7903 13.1958C14.7014 13.1977 14.6146 13.1687 14.5446 13.1139C14.4766 13.0597 14.4304 12.9827 14.4145 12.8972C14.4098 12.862 14.4098 12.8263 14.4145 12.7911L14.4434 9.9393Z" fill="#FEE500"/>
</svg>
