<svg width="61" height="56" viewBox="0 0 61 56" fill="none" xmlns="http://www.w3.org/2000/svg">
<path d="M2.09925 56.0001C2.78544 56.0001 3.34171 55.4438 3.34171 54.7576C3.34171 54.0714 2.78544 53.5151 2.09925 53.5151C1.41305 53.5151 0.856781 54.0714 0.856781 54.7576C0.856781 55.4438 1.41305 56.0001 2.09925 56.0001Z" fill="white"/>
<path d="M2.09925 45.2622C2.78544 45.2622 3.34171 44.7059 3.34171 44.0197C3.34171 43.3335 2.78544 42.7772 2.09925 42.7772C1.41305 42.7772 0.856781 43.3335 0.856781 44.0197C0.856781 44.7059 1.41305 45.2622 2.09925 45.2622Z" fill="white"/>
<path d="M2.09925 34.5229C2.78544 34.5229 3.34171 33.9666 3.34171 33.2804C3.34171 32.5942 2.78544 32.038 2.09925 32.038C1.41305 32.038 0.856781 32.5942 0.856781 33.2804C0.856781 33.9666 1.41305 34.5229 2.09925 34.5229Z" fill="white"/>
<path d="M2.09925 23.8732C2.78544 23.8732 3.34171 23.317 3.34171 22.6308C3.34171 21.9446 2.78544 21.3883 2.09925 21.3883C1.41305 21.3883 0.856781 21.9446 0.856781 22.6308C0.856781 23.317 1.41305 23.8732 2.09925 23.8732Z" fill="white"/>
<path d="M2.09925 13.1353C2.78544 13.1353 3.34171 12.579 3.34171 11.8929C3.34171 11.2067 2.78544 10.6504 2.09925 10.6504C1.41305 10.6504 0.856781 11.2067 0.856781 11.8929C0.856781 12.579 1.41305 13.1353 2.09925 13.1353Z" fill="white"/>
<path d="M2.10065 2.48578C2.78684 2.48578 3.34311 1.92951 3.34311 1.24332C3.34311 0.557125 2.78684 0.000854492 2.10065 0.000854492C1.41446 0.000854492 0.858185 0.557125 0.858185 1.24332C0.858185 1.92951 1.41446 2.48578 2.10065 2.48578Z" fill="white"/>
<path d="M59.6095 55.9992C60.2957 55.9992 60.8519 55.4429 60.8519 54.7567C60.8519 54.0706 60.2957 53.5143 59.6095 53.5143C58.9233 53.5143 58.367 54.0706 58.367 54.7567C58.367 55.4429 58.9233 55.9992 59.6095 55.9992Z" fill="white"/>
<path d="M59.6095 45.2613C60.2957 45.2613 60.8519 44.705 60.8519 44.0188C60.8519 43.3326 60.2957 42.7764 59.6095 42.7764C58.9233 42.7764 58.367 43.3326 58.367 44.0188C58.367 44.705 58.9233 45.2613 59.6095 45.2613Z" fill="white"/>
<path d="M59.6095 34.522C60.2957 34.522 60.8519 33.9658 60.8519 33.2796C60.8519 32.5934 60.2957 32.0371 59.6095 32.0371C58.9233 32.0371 58.367 32.5934 58.367 33.2796C58.367 33.9658 58.9233 34.522 59.6095 34.522Z" fill="white"/>
<path d="M59.6095 23.8724C60.2957 23.8724 60.8519 23.3161 60.8519 22.6299C60.8519 21.9437 60.2957 21.3875 59.6095 21.3875C58.9233 21.3875 58.367 21.9437 58.367 22.6299C58.367 23.3161 58.9233 23.8724 59.6095 23.8724Z" fill="white"/>
<path d="M59.6095 13.1345C60.2957 13.1345 60.8519 12.5782 60.8519 11.892C60.8519 11.2058 60.2957 10.6495 59.6095 10.6495C58.9233 10.6495 58.367 11.2058 58.367 11.892C58.367 12.5782 58.9233 13.1345 59.6095 13.1345Z" fill="white"/>
<path d="M59.6097 2.48493C60.2959 2.48493 60.8522 1.92866 60.8522 1.24246C60.8522 0.55627 60.2959 0 59.6097 0C58.9235 0 58.3672 0.55627 58.3672 1.24246C58.3672 1.92866 58.9235 2.48493 59.6097 2.48493Z" fill="white"/>
<path d="M48.161 55.9992C48.8472 55.9992 49.4035 55.4429 49.4035 54.7567C49.4035 54.0706 48.8472 53.5143 48.161 53.5143C47.4748 53.5143 46.9185 54.0706 46.9185 54.7567C46.9185 55.4429 47.4748 55.9992 48.161 55.9992Z" fill="white"/>
<path d="M48.161 45.2613C48.8472 45.2613 49.4035 44.705 49.4035 44.0188C49.4035 43.3326 48.8472 42.7764 48.161 42.7764C47.4748 42.7764 46.9185 43.3326 46.9185 44.0188C46.9185 44.705 47.4748 45.2613 48.161 45.2613Z" fill="white"/>
<path d="M48.161 34.522C48.8472 34.522 49.4035 33.9658 49.4035 33.2796C49.4035 32.5934 48.8472 32.0371 48.161 32.0371C47.4748 32.0371 46.9185 32.5934 46.9185 33.2796C46.9185 33.9658 47.4748 34.522 48.161 34.522Z" fill="white"/>
<path d="M48.161 23.8724C48.8472 23.8724 49.4035 23.3161 49.4035 22.6299C49.4035 21.9437 48.8472 21.3875 48.161 21.3875C47.4748 21.3875 46.9185 21.9437 46.9185 22.6299C46.9185 23.3161 47.4748 23.8724 48.161 23.8724Z" fill="white"/>
<path d="M48.161 13.1345C48.8472 13.1345 49.4035 12.5782 49.4035 11.892C49.4035 11.2058 48.8472 10.6495 48.161 10.6495C47.4748 10.6495 46.9185 11.2058 46.9185 11.892C46.9185 12.5782 47.4748 13.1345 48.161 13.1345Z" fill="white"/>
<path d="M48.1605 2.48493C48.8467 2.48493 49.403 1.92866 49.403 1.24246C49.403 0.55627 48.8467 0 48.1605 0C47.4743 0 46.9181 0.55627 46.9181 1.24246C46.9181 1.92866 47.4743 2.48493 48.1605 2.48493Z" fill="white"/>
<path d="M36.6239 55.9992C37.3101 55.9992 37.8663 55.4429 37.8663 54.7567C37.8663 54.0706 37.3101 53.5143 36.6239 53.5143C35.9377 53.5143 35.3814 54.0706 35.3814 54.7567C35.3814 55.4429 35.9377 55.9992 36.6239 55.9992Z" fill="white"/>
<path d="M36.6239 45.2613C37.3101 45.2613 37.8663 44.705 37.8663 44.0188C37.8663 43.3326 37.3101 42.7764 36.6239 42.7764C35.9377 42.7764 35.3814 43.3326 35.3814 44.0188C35.3814 44.705 35.9377 45.2613 36.6239 45.2613Z" fill="white"/>
<path d="M36.6239 34.522C37.3101 34.522 37.8663 33.9658 37.8663 33.2796C37.8663 32.5934 37.3101 32.0371 36.6239 32.0371C35.9377 32.0371 35.3814 32.5934 35.3814 33.2796C35.3814 33.9658 35.9377 34.522 36.6239 34.522Z" fill="white"/>
<path d="M36.6239 23.8724C37.3101 23.8724 37.8663 23.3161 37.8663 22.6299C37.8663 21.9437 37.3101 21.3875 36.6239 21.3875C35.9377 21.3875 35.3814 21.9437 35.3814 22.6299C35.3814 23.3161 35.9377 23.8724 36.6239 23.8724Z" fill="white"/>
<path d="M36.6239 13.1345C37.3101 13.1345 37.8663 12.5782 37.8663 11.892C37.8663 11.2058 37.3101 10.6495 36.6239 10.6495C35.9377 10.6495 35.3814 11.2058 35.3814 11.892C35.3814 12.5782 35.9377 13.1345 36.6239 13.1345Z" fill="white"/>
<path d="M36.6234 2.48493C37.3095 2.48493 37.8658 1.92866 37.8658 1.24246C37.8658 0.55627 37.3095 0 36.6234 0C35.9372 0 35.3809 0.55627 35.3809 1.24246C35.3809 1.92866 35.9372 2.48493 36.6234 2.48493Z" fill="white"/>
<path d="M25.0868 55.9992C25.773 55.9992 26.3293 55.4429 26.3293 54.7567C26.3293 54.0706 25.773 53.5143 25.0868 53.5143C24.4006 53.5143 23.8443 54.0706 23.8443 54.7567C23.8443 55.4429 24.4006 55.9992 25.0868 55.9992Z" fill="white"/>
<path d="M25.0868 45.2613C25.773 45.2613 26.3293 44.705 26.3293 44.0188C26.3293 43.3326 25.773 42.7764 25.0868 42.7764C24.4006 42.7764 23.8443 43.3326 23.8443 44.0188C23.8443 44.705 24.4006 45.2613 25.0868 45.2613Z" fill="white"/>
<path d="M25.0868 34.522C25.773 34.522 26.3293 33.9658 26.3293 33.2796C26.3293 32.5934 25.773 32.0371 25.0868 32.0371C24.4006 32.0371 23.8443 32.5934 23.8443 33.2796C23.8443 33.9658 24.4006 34.522 25.0868 34.522Z" fill="white"/>
<path d="M25.0868 23.8724C25.773 23.8724 26.3293 23.3161 26.3293 22.6299C26.3293 21.9437 25.773 21.3875 25.0868 21.3875C24.4006 21.3875 23.8443 21.9437 23.8443 22.6299C23.8443 23.3161 24.4006 23.8724 25.0868 23.8724Z" fill="white"/>
<path d="M25.0868 13.1345C25.773 13.1345 26.3293 12.5782 26.3293 11.892C26.3293 11.2058 25.773 10.6495 25.0868 10.6495C24.4006 10.6495 23.8443 11.2058 23.8443 11.892C23.8443 12.5782 24.4006 13.1345 25.0868 13.1345Z" fill="white"/>
<path d="M25.0862 2.48493C25.7724 2.48493 26.3287 1.92866 26.3287 1.24246C26.3287 0.55627 25.7724 0 25.0862 0C24.4 0 23.8437 0.55627 23.8437 1.24246C23.8437 1.92866 24.4 2.48493 25.0862 2.48493Z" fill="white"/>
<path d="M13.5497 55.9992C14.2358 55.9992 14.7921 55.4429 14.7921 54.7567C14.7921 54.0706 14.2358 53.5143 13.5497 53.5143C12.8635 53.5143 12.3072 54.0706 12.3072 54.7567C12.3072 55.4429 12.8635 55.9992 13.5497 55.9992Z" fill="white"/>
<path d="M13.5497 45.2613C14.2358 45.2613 14.7921 44.705 14.7921 44.0188C14.7921 43.3326 14.2358 42.7764 13.5497 42.7764C12.8635 42.7764 12.3072 43.3326 12.3072 44.0188C12.3072 44.705 12.8635 45.2613 13.5497 45.2613Z" fill="white"/>
<path d="M13.5497 34.522C14.2358 34.522 14.7921 33.9658 14.7921 33.2796C14.7921 32.5934 14.2358 32.0371 13.5497 32.0371C12.8635 32.0371 12.3072 32.5934 12.3072 33.2796C12.3072 33.9658 12.8635 34.522 13.5497 34.522Z" fill="white"/>
<path d="M13.5497 23.8724C14.2358 23.8724 14.7921 23.3161 14.7921 22.6299C14.7921 21.9437 14.2358 21.3875 13.5497 21.3875C12.8635 21.3875 12.3072 21.9437 12.3072 22.6299C12.3072 23.3161 12.8635 23.8724 13.5497 23.8724Z" fill="white"/>
<path d="M13.5497 13.1345C14.2358 13.1345 14.7921 12.5782 14.7921 11.892C14.7921 11.2058 14.2358 10.6495 13.5497 10.6495C12.8635 10.6495 12.3072 11.2058 12.3072 11.892C12.3072 12.5782 12.8635 13.1345 13.5497 13.1345Z" fill="white"/>
<path d="M13.549 2.48493C14.2352 2.48493 14.7915 1.92866 14.7915 1.24246C14.7915 0.55627 14.2352 0 13.549 0C12.8628 0 12.3065 0.55627 12.3065 1.24246C12.3065 1.92866 12.8628 2.48493 13.549 2.48493Z" fill="white"/>
</svg>
