<svg width="1920" height="1954" viewBox="0 0 1920 1954" fill="none" xmlns="http://www.w3.org/2000/svg">
<g clip-path="url(#clip0_39_4086)">
<rect width="1920" height="1954" fill="white"/>
<path d="M-232.524 602.061C-150.775 508.217 10.6618 629.622 244.576 576.49C447.173 530.448 458.829 408.153 620.7 414.218C738.96 418.625 867.827 486.881 938.649 605.794C1016.75 736.905 988.361 870.385 980.391 902.776C944.812 1048.06 839.21 1124.7 801.956 1150.87C648.465 1258.65 476.228 1239.76 393.599 1230.74C83.213 1196.76 -249.083 975.261 -263.879 734.442C-265.845 702.915 -269.424 644.438 -232.524 602.061Z" fill="url(#paint0_linear_39_4086)"/>
<g opacity="0.3">
<path d="M62.4111 286.815C64.8473 286.815 66.8222 284.84 66.8222 282.404C66.8222 279.967 64.8473 277.993 62.4111 277.993C59.9749 277.993 58 279.967 58 282.404C58 284.84 59.9749 286.815 62.4111 286.815Z" fill="#247100" fill-opacity="0.49"/>
<path d="M62.4111 248.693C64.8473 248.693 66.8222 246.718 66.8222 244.282C66.8222 241.846 64.8473 239.871 62.4111 239.871C59.9749 239.871 58 241.846 58 244.282C58 246.718 59.9749 248.693 62.4111 248.693Z" fill="#247100" fill-opacity="0.49"/>
<path d="M62.4111 210.566C64.8473 210.566 66.8222 208.591 66.8222 206.155C66.8222 203.718 64.8473 201.744 62.4111 201.744C59.9749 201.744 58 203.718 58 206.155C58 208.591 59.9749 210.566 62.4111 210.566Z" fill="#247100" fill-opacity="0.49"/>
<path d="M62.4111 172.756C64.8473 172.756 66.8222 170.781 66.8222 168.345C66.8222 165.909 64.8473 163.934 62.4111 163.934C59.9749 163.934 58 165.909 58 168.345C58 170.781 59.9749 172.756 62.4111 172.756Z" fill="#247100" fill-opacity="0.49"/>
<path d="M62.4111 134.633C64.8473 134.633 66.8222 132.658 66.8222 130.222C66.8222 127.786 64.8473 125.811 62.4111 125.811C59.9749 125.811 58 127.786 58 130.222C58 132.658 59.9749 134.633 62.4111 134.633Z" fill="#247100" fill-opacity="0.49"/>
<path d="M62.4184 96.8251C64.8546 96.8251 66.8295 94.8502 66.8295 92.414C66.8295 89.9778 64.8546 88.0029 62.4184 88.0029C59.9822 88.0029 58.0073 89.9778 58.0073 92.414C58.0073 94.8502 59.9822 96.8251 62.4184 96.8251Z" fill="#247100" fill-opacity="0.49"/>
<path d="M266.588 286.813C269.025 286.813 270.999 284.838 270.999 282.401C270.999 279.965 269.025 277.99 266.588 277.99C264.152 277.99 262.177 279.965 262.177 282.401C262.177 284.838 264.152 286.813 266.588 286.813Z" fill="#247100" fill-opacity="0.49"/>
<path d="M266.588 248.691C269.025 248.691 270.999 246.716 270.999 244.28C270.999 241.843 269.025 239.868 266.588 239.868C264.152 239.868 262.177 241.843 262.177 244.28C262.177 246.716 264.152 248.691 266.588 248.691Z" fill="#247100" fill-opacity="0.49"/>
<path d="M266.588 210.563C269.025 210.563 270.999 208.588 270.999 206.152C270.999 203.716 269.025 201.741 266.588 201.741C264.152 201.741 262.177 203.716 262.177 206.152C262.177 208.588 264.152 210.563 266.588 210.563Z" fill="#247100" fill-opacity="0.49"/>
<path d="M266.588 172.753C269.025 172.753 270.999 170.779 270.999 168.342C270.999 165.906 269.025 163.931 266.588 163.931C264.152 163.931 262.177 165.906 262.177 168.342C262.177 170.779 264.152 172.753 266.588 172.753Z" fill="#247100" fill-opacity="0.49"/>
<path d="M266.588 134.631C269.025 134.631 270.999 132.656 270.999 130.22C270.999 127.784 269.025 125.809 266.588 125.809C264.152 125.809 262.177 127.784 262.177 130.22C262.177 132.656 264.152 134.631 266.588 134.631Z" fill="#247100" fill-opacity="0.49"/>
<path d="M266.589 96.8222C269.025 96.8222 271 94.8473 271 92.4111C271 89.9749 269.025 88 266.589 88C264.152 88 262.177 89.9749 262.177 92.4111C262.177 94.8473 264.152 96.8222 266.589 96.8222Z" fill="#247100" fill-opacity="0.49"/>
<path d="M225.943 286.813C228.38 286.813 230.354 284.838 230.354 282.401C230.354 279.965 228.38 277.99 225.943 277.99C223.507 277.99 221.532 279.965 221.532 282.401C221.532 284.838 223.507 286.813 225.943 286.813Z" fill="#247100" fill-opacity="0.49"/>
<path d="M225.943 248.691C228.38 248.691 230.354 246.716 230.354 244.28C230.354 241.843 228.38 239.868 225.943 239.868C223.507 239.868 221.532 241.843 221.532 244.28C221.532 246.716 223.507 248.691 225.943 248.691Z" fill="#247100" fill-opacity="0.49"/>
<path d="M225.943 210.563C228.38 210.563 230.354 208.588 230.354 206.152C230.354 203.716 228.38 201.741 225.943 201.741C223.507 201.741 221.532 203.716 221.532 206.152C221.532 208.588 223.507 210.563 225.943 210.563Z" fill="#247100" fill-opacity="0.49"/>
<path d="M225.943 172.753C228.38 172.753 230.354 170.779 230.354 168.342C230.354 165.906 228.38 163.931 225.943 163.931C223.507 163.931 221.532 165.906 221.532 168.342C221.532 170.779 223.507 172.753 225.943 172.753Z" fill="#247100" fill-opacity="0.49"/>
<path d="M225.943 134.631C228.38 134.631 230.354 132.656 230.354 130.22C230.354 127.784 228.38 125.809 225.943 125.809C223.507 125.809 221.532 127.784 221.532 130.22C221.532 132.656 223.507 134.631 225.943 134.631Z" fill="#247100" fill-opacity="0.49"/>
<path d="M225.942 96.8222C228.378 96.8222 230.353 94.8473 230.353 92.4111C230.353 89.9749 228.378 88 225.942 88C223.505 88 221.531 89.9749 221.531 92.4111C221.531 94.8473 223.505 96.8222 225.942 96.8222Z" fill="#247100" fill-opacity="0.49"/>
<path d="M184.983 286.813C187.42 286.813 189.394 284.838 189.394 282.401C189.394 279.965 187.42 277.99 184.983 277.99C182.547 277.99 180.572 279.965 180.572 282.401C180.572 284.838 182.547 286.813 184.983 286.813Z" fill="#247100" fill-opacity="0.49"/>
<path d="M184.983 248.691C187.42 248.691 189.394 246.716 189.394 244.28C189.394 241.843 187.42 239.868 184.983 239.868C182.547 239.868 180.572 241.843 180.572 244.28C180.572 246.716 182.547 248.691 184.983 248.691Z" fill="#247100" fill-opacity="0.49"/>
<path d="M184.983 210.563C187.42 210.563 189.394 208.588 189.394 206.152C189.394 203.716 187.42 201.741 184.983 201.741C182.547 201.741 180.572 203.716 180.572 206.152C180.572 208.588 182.547 210.563 184.983 210.563Z" fill="#247100" fill-opacity="0.49"/>
<path d="M184.983 172.753C187.42 172.753 189.394 170.779 189.394 168.342C189.394 165.906 187.42 163.931 184.983 163.931C182.547 163.931 180.572 165.906 180.572 168.342C180.572 170.779 182.547 172.753 184.983 172.753Z" fill="#247100" fill-opacity="0.49"/>
<path d="M184.983 134.631C187.42 134.631 189.394 132.656 189.394 130.22C189.394 127.784 187.42 125.809 184.983 125.809C182.547 125.809 180.572 127.784 180.572 130.22C180.572 132.656 182.547 134.631 184.983 134.631Z" fill="#247100" fill-opacity="0.49"/>
<path d="M184.981 96.8222C187.418 96.8222 189.393 94.8473 189.393 92.4111C189.393 89.9749 187.418 88 184.981 88C182.545 88 180.57 89.9749 180.57 92.4111C180.57 94.8473 182.545 96.8222 184.981 96.8222Z" fill="#247100" fill-opacity="0.49"/>
<path d="M144.023 286.813C146.46 286.813 148.435 284.838 148.435 282.401C148.435 279.965 146.46 277.99 144.023 277.99C141.587 277.99 139.612 279.965 139.612 282.401C139.612 284.838 141.587 286.813 144.023 286.813Z" fill="#247100" fill-opacity="0.49"/>
<path d="M144.023 248.691C146.46 248.691 148.435 246.716 148.435 244.28C148.435 241.843 146.46 239.868 144.023 239.868C141.587 239.868 139.612 241.843 139.612 244.28C139.612 246.716 141.587 248.691 144.023 248.691Z" fill="#247100" fill-opacity="0.49"/>
<path d="M144.023 210.563C146.46 210.563 148.435 208.588 148.435 206.152C148.435 203.716 146.46 201.741 144.023 201.741C141.587 201.741 139.612 203.716 139.612 206.152C139.612 208.588 141.587 210.563 144.023 210.563Z" fill="#247100" fill-opacity="0.49"/>
<path d="M144.023 172.753C146.46 172.753 148.435 170.779 148.435 168.342C148.435 165.906 146.46 163.931 144.023 163.931C141.587 163.931 139.612 165.906 139.612 168.342C139.612 170.779 141.587 172.753 144.023 172.753Z" fill="#247100" fill-opacity="0.49"/>
<path d="M144.023 134.631C146.46 134.631 148.435 132.656 148.435 130.22C148.435 127.784 146.46 125.809 144.023 125.809C141.587 125.809 139.612 127.784 139.612 130.22C139.612 132.656 141.587 134.631 144.023 134.631Z" fill="#247100" fill-opacity="0.49"/>
<path d="M144.021 96.8222C146.457 96.8222 148.432 94.8473 148.432 92.4111C148.432 89.9749 146.457 88 144.021 88C141.585 88 139.61 89.9749 139.61 92.4111C139.61 94.8473 141.585 96.8222 144.021 96.8222Z" fill="#247100" fill-opacity="0.49"/>
<path d="M103.063 286.813C105.5 286.813 107.475 284.838 107.475 282.401C107.475 279.965 105.5 277.99 103.063 277.99C100.627 277.99 98.6523 279.965 98.6523 282.401C98.6523 284.838 100.627 286.813 103.063 286.813Z" fill="#247100" fill-opacity="0.49"/>
<path d="M103.063 248.691C105.5 248.691 107.475 246.716 107.475 244.28C107.475 241.843 105.5 239.868 103.063 239.868C100.627 239.868 98.6523 241.843 98.6523 244.28C98.6523 246.716 100.627 248.691 103.063 248.691Z" fill="#247100" fill-opacity="0.49"/>
<path d="M103.063 210.563C105.5 210.563 107.475 208.588 107.475 206.152C107.475 203.716 105.5 201.741 103.063 201.741C100.627 201.741 98.6523 203.716 98.6523 206.152C98.6523 208.588 100.627 210.563 103.063 210.563Z" fill="#247100" fill-opacity="0.49"/>
<path d="M103.063 172.753C105.5 172.753 107.475 170.779 107.475 168.342C107.475 165.906 105.5 163.931 103.063 163.931C100.627 163.931 98.6523 165.906 98.6523 168.342C98.6523 170.779 100.627 172.753 103.063 172.753Z" fill="#247100" fill-opacity="0.49"/>
<path d="M103.063 134.631C105.5 134.631 107.475 132.656 107.475 130.22C107.475 127.784 105.5 125.809 103.063 125.809C100.627 125.809 98.6523 127.784 98.6523 130.22C98.6523 132.656 100.627 134.631 103.063 134.631Z" fill="#247100" fill-opacity="0.49"/>
<path d="M103.061 96.8222C105.497 96.8222 107.472 94.8473 107.472 92.4111C107.472 89.9749 105.497 88 103.061 88C100.625 88 98.6501 89.9749 98.6501 92.4111C98.6501 94.8473 100.625 96.8222 103.061 96.8222Z" fill="#247100" fill-opacity="0.49"/>
</g>
<g opacity="0.3">
<path d="M1655.41 687.815C1657.85 687.815 1659.82 685.84 1659.82 683.404C1659.82 680.967 1657.85 678.993 1655.41 678.993C1652.97 678.993 1651 680.967 1651 683.404C1651 685.84 1652.97 687.815 1655.41 687.815Z" fill="#247100" fill-opacity="0.49"/>
<path d="M1655.41 649.693C1657.85 649.693 1659.82 647.718 1659.82 645.282C1659.82 642.846 1657.85 640.871 1655.41 640.871C1652.97 640.871 1651 642.846 1651 645.282C1651 647.718 1652.97 649.693 1655.41 649.693Z" fill="#247100" fill-opacity="0.49"/>
<path d="M1655.41 611.566C1657.85 611.566 1659.82 609.591 1659.82 607.155C1659.82 604.718 1657.85 602.744 1655.41 602.744C1652.97 602.744 1651 604.718 1651 607.155C1651 609.591 1652.97 611.566 1655.41 611.566Z" fill="#247100" fill-opacity="0.49"/>
<path d="M1655.41 573.756C1657.85 573.756 1659.82 571.781 1659.82 569.345C1659.82 566.909 1657.85 564.934 1655.41 564.934C1652.97 564.934 1651 566.909 1651 569.345C1651 571.781 1652.97 573.756 1655.41 573.756Z" fill="#247100" fill-opacity="0.49"/>
<path d="M1655.41 535.633C1657.85 535.633 1659.82 533.658 1659.82 531.222C1659.82 528.786 1657.85 526.811 1655.41 526.811C1652.97 526.811 1651 528.786 1651 531.222C1651 533.658 1652.97 535.633 1655.41 535.633Z" fill="#247100" fill-opacity="0.49"/>
<path d="M1655.42 497.825C1657.85 497.825 1659.83 495.85 1659.83 493.414C1659.83 490.978 1657.85 489.003 1655.42 489.003C1652.98 489.003 1651.01 490.978 1651.01 493.414C1651.01 495.85 1652.98 497.825 1655.42 497.825Z" fill="#247100" fill-opacity="0.49"/>
<path d="M1859.59 687.813C1862.02 687.813 1864 685.838 1864 683.401C1864 680.965 1862.02 678.99 1859.59 678.99C1857.15 678.99 1855.18 680.965 1855.18 683.401C1855.18 685.838 1857.15 687.813 1859.59 687.813Z" fill="#247100" fill-opacity="0.49"/>
<path d="M1859.59 649.691C1862.02 649.691 1864 647.716 1864 645.28C1864 642.843 1862.02 640.868 1859.59 640.868C1857.15 640.868 1855.18 642.843 1855.18 645.28C1855.18 647.716 1857.15 649.691 1859.59 649.691Z" fill="#247100" fill-opacity="0.49"/>
<path d="M1859.59 611.563C1862.02 611.563 1864 609.588 1864 607.152C1864 604.715 1862.02 602.741 1859.59 602.741C1857.15 602.741 1855.18 604.715 1855.18 607.152C1855.18 609.588 1857.15 611.563 1859.59 611.563Z" fill="#247100" fill-opacity="0.49"/>
<path d="M1859.59 573.753C1862.02 573.753 1864 571.779 1864 569.342C1864 566.906 1862.02 564.931 1859.59 564.931C1857.15 564.931 1855.18 566.906 1855.18 569.342C1855.18 571.779 1857.15 573.753 1859.59 573.753Z" fill="#247100" fill-opacity="0.49"/>
<path d="M1859.59 535.631C1862.02 535.631 1864 533.656 1864 531.22C1864 528.783 1862.02 526.809 1859.59 526.809C1857.15 526.809 1855.18 528.783 1855.18 531.22C1855.18 533.656 1857.15 535.631 1859.59 535.631Z" fill="#247100" fill-opacity="0.49"/>
<path d="M1859.59 497.822C1862.02 497.822 1864 495.847 1864 493.411C1864 490.975 1862.02 489 1859.59 489C1857.15 489 1855.18 490.975 1855.18 493.411C1855.18 495.847 1857.15 497.822 1859.59 497.822Z" fill="#247100" fill-opacity="0.49"/>
<path d="M1818.94 687.813C1821.38 687.813 1823.35 685.838 1823.35 683.401C1823.35 680.965 1821.38 678.99 1818.94 678.99C1816.51 678.99 1814.53 680.965 1814.53 683.401C1814.53 685.838 1816.51 687.813 1818.94 687.813Z" fill="#247100" fill-opacity="0.49"/>
<path d="M1818.94 649.691C1821.38 649.691 1823.35 647.716 1823.35 645.28C1823.35 642.843 1821.38 640.868 1818.94 640.868C1816.51 640.868 1814.53 642.843 1814.53 645.28C1814.53 647.716 1816.51 649.691 1818.94 649.691Z" fill="#247100" fill-opacity="0.49"/>
<path d="M1818.94 611.563C1821.38 611.563 1823.35 609.588 1823.35 607.152C1823.35 604.715 1821.38 602.741 1818.94 602.741C1816.51 602.741 1814.53 604.715 1814.53 607.152C1814.53 609.588 1816.51 611.563 1818.94 611.563Z" fill="#247100" fill-opacity="0.49"/>
<path d="M1818.94 573.753C1821.38 573.753 1823.35 571.779 1823.35 569.342C1823.35 566.906 1821.38 564.931 1818.94 564.931C1816.51 564.931 1814.53 566.906 1814.53 569.342C1814.53 571.779 1816.51 573.753 1818.94 573.753Z" fill="#247100" fill-opacity="0.49"/>
<path d="M1818.94 535.631C1821.38 535.631 1823.35 533.656 1823.35 531.22C1823.35 528.783 1821.38 526.809 1818.94 526.809C1816.51 526.809 1814.53 528.783 1814.53 531.22C1814.53 533.656 1816.51 535.631 1818.94 535.631Z" fill="#247100" fill-opacity="0.49"/>
<path d="M1818.94 497.822C1821.38 497.822 1823.35 495.847 1823.35 493.411C1823.35 490.975 1821.38 489 1818.94 489C1816.51 489 1814.53 490.975 1814.53 493.411C1814.53 495.847 1816.51 497.822 1818.94 497.822Z" fill="#247100" fill-opacity="0.49"/>
<path d="M1777.98 687.813C1780.42 687.813 1782.39 685.838 1782.39 683.401C1782.39 680.965 1780.42 678.99 1777.98 678.99C1775.55 678.99 1773.57 680.965 1773.57 683.401C1773.57 685.838 1775.55 687.813 1777.98 687.813Z" fill="#247100" fill-opacity="0.49"/>
<path d="M1777.98 649.691C1780.42 649.691 1782.39 647.716 1782.39 645.28C1782.39 642.843 1780.42 640.868 1777.98 640.868C1775.55 640.868 1773.57 642.843 1773.57 645.28C1773.57 647.716 1775.55 649.691 1777.98 649.691Z" fill="#247100" fill-opacity="0.49"/>
<path d="M1777.98 611.563C1780.42 611.563 1782.39 609.588 1782.39 607.152C1782.39 604.715 1780.42 602.741 1777.98 602.741C1775.55 602.741 1773.57 604.715 1773.57 607.152C1773.57 609.588 1775.55 611.563 1777.98 611.563Z" fill="#247100" fill-opacity="0.49"/>
<path d="M1777.98 573.753C1780.42 573.753 1782.39 571.779 1782.39 569.342C1782.39 566.906 1780.42 564.931 1777.98 564.931C1775.55 564.931 1773.57 566.906 1773.57 569.342C1773.57 571.779 1775.55 573.753 1777.98 573.753Z" fill="#247100" fill-opacity="0.49"/>
<path d="M1777.98 535.631C1780.42 535.631 1782.39 533.656 1782.39 531.22C1782.39 528.783 1780.42 526.809 1777.98 526.809C1775.55 526.809 1773.57 528.783 1773.57 531.22C1773.57 533.656 1775.55 535.631 1777.98 535.631Z" fill="#247100" fill-opacity="0.49"/>
<path d="M1777.98 497.822C1780.42 497.822 1782.39 495.847 1782.39 493.411C1782.39 490.975 1780.42 489 1777.98 489C1775.55 489 1773.57 490.975 1773.57 493.411C1773.57 495.847 1775.55 497.822 1777.98 497.822Z" fill="#247100" fill-opacity="0.49"/>
<path d="M1737.02 687.813C1739.46 687.813 1741.43 685.838 1741.43 683.401C1741.43 680.965 1739.46 678.99 1737.02 678.99C1734.59 678.99 1732.61 680.965 1732.61 683.401C1732.61 685.838 1734.59 687.813 1737.02 687.813Z" fill="#247100" fill-opacity="0.49"/>
<path d="M1737.02 649.691C1739.46 649.691 1741.43 647.716 1741.43 645.28C1741.43 642.843 1739.46 640.868 1737.02 640.868C1734.59 640.868 1732.61 642.843 1732.61 645.28C1732.61 647.716 1734.59 649.691 1737.02 649.691Z" fill="#247100" fill-opacity="0.49"/>
<path d="M1737.02 611.563C1739.46 611.563 1741.43 609.588 1741.43 607.152C1741.43 604.715 1739.46 602.741 1737.02 602.741C1734.59 602.741 1732.61 604.715 1732.61 607.152C1732.61 609.588 1734.59 611.563 1737.02 611.563Z" fill="#247100" fill-opacity="0.49"/>
<path d="M1737.02 573.753C1739.46 573.753 1741.43 571.779 1741.43 569.342C1741.43 566.906 1739.46 564.931 1737.02 564.931C1734.59 564.931 1732.61 566.906 1732.61 569.342C1732.61 571.779 1734.59 573.753 1737.02 573.753Z" fill="#247100" fill-opacity="0.49"/>
<path d="M1737.02 535.631C1739.46 535.631 1741.43 533.656 1741.43 531.22C1741.43 528.783 1739.46 526.809 1737.02 526.809C1734.59 526.809 1732.61 528.783 1732.61 531.22C1732.61 533.656 1734.59 535.631 1737.02 535.631Z" fill="#247100" fill-opacity="0.49"/>
<path d="M1737.02 497.822C1739.46 497.822 1741.43 495.847 1741.43 493.411C1741.43 490.975 1739.46 489 1737.02 489C1734.59 489 1732.61 490.975 1732.61 493.411C1732.61 495.847 1734.59 497.822 1737.02 497.822Z" fill="#247100" fill-opacity="0.49"/>
<path d="M1696.06 687.813C1698.5 687.813 1700.47 685.838 1700.47 683.401C1700.47 680.965 1698.5 678.99 1696.06 678.99C1693.63 678.99 1691.65 680.965 1691.65 683.401C1691.65 685.838 1693.63 687.813 1696.06 687.813Z" fill="#247100" fill-opacity="0.49"/>
<path d="M1696.06 649.691C1698.5 649.691 1700.47 647.716 1700.47 645.28C1700.47 642.843 1698.5 640.868 1696.06 640.868C1693.63 640.868 1691.65 642.843 1691.65 645.28C1691.65 647.716 1693.63 649.691 1696.06 649.691Z" fill="#247100" fill-opacity="0.49"/>
<path d="M1696.06 611.563C1698.5 611.563 1700.47 609.588 1700.47 607.152C1700.47 604.715 1698.5 602.741 1696.06 602.741C1693.63 602.741 1691.65 604.715 1691.65 607.152C1691.65 609.588 1693.63 611.563 1696.06 611.563Z" fill="#247100" fill-opacity="0.49"/>
<path d="M1696.06 573.753C1698.5 573.753 1700.47 571.779 1700.47 569.342C1700.47 566.906 1698.5 564.931 1696.06 564.931C1693.63 564.931 1691.65 566.906 1691.65 569.342C1691.65 571.779 1693.63 573.753 1696.06 573.753Z" fill="#247100" fill-opacity="0.49"/>
<path d="M1696.06 535.631C1698.5 535.631 1700.47 533.656 1700.47 531.22C1700.47 528.783 1698.5 526.809 1696.06 526.809C1693.63 526.809 1691.65 528.783 1691.65 531.22C1691.65 533.656 1693.63 535.631 1696.06 535.631Z" fill="#247100" fill-opacity="0.49"/>
<path d="M1696.06 497.822C1698.5 497.822 1700.47 495.847 1700.47 493.411C1700.47 490.975 1698.5 489 1696.06 489C1693.62 489 1691.65 490.975 1691.65 493.411C1691.65 495.847 1693.62 497.822 1696.06 497.822Z" fill="#247100" fill-opacity="0.49"/>
</g>
</g>
<defs>
<linearGradient id="paint0_linear_39_4086" x1="546.354" y1="220.704" x2="234.601" y2="1160.47" gradientUnits="userSpaceOnUse">
<stop stop-color="#247100" stop-opacity="0"/>
<stop offset="1" stop-color="#247100" stop-opacity="0.12"/>
</linearGradient>
<clipPath id="clip0_39_4086">
<rect width="1920" height="1954" fill="white"/>
</clipPath>
</defs>
</svg>
