<svg width="48" height="48" viewBox="0 0 48 48" fill="none" xmlns="http://www.w3.org/2000/svg">
<path fill-rule="evenodd" clip-rule="evenodd" d="M25.6324 14.3673L31.1713 8.82843C32.5047 7.4951 33.1713 6.82843 33.9998 6.82843C34.8282 6.82843 35.4949 7.4951 36.8282 8.82843L39.1713 11.1716C40.5047 12.5049 41.1713 13.1716 41.1713 14C41.1713 14.8284 40.5047 15.4951 39.1713 16.8284L33.6756 22.3242C30.3591 20.3849 27.5955 17.6418 25.6324 14.3673ZM24.1782 15.8216L8.85615 31.1436C8.43109 31.5687 8.21856 31.7812 8.07883 32.0423C7.93909 32.3034 7.88015 32.5981 7.76226 33.1876L6.14686 41.2646C6.08034 41.5972 6.04708 41.7635 6.14168 41.8581C6.23629 41.9527 6.40257 41.9194 6.73513 41.8529L6.73517 41.8529L6.73521 41.8529L14.8122 40.2375L14.8122 40.2375C15.4017 40.1196 15.6964 40.0607 15.9575 39.921C16.2186 39.7812 16.4311 39.5687 16.8561 39.1437L16.8561 39.1436L16.8562 39.1436L32.2176 23.7821C28.9519 21.7788 26.2025 19.0488 24.1782 15.8216Z" fill="#247100"/>
</svg>
