<svg width="48" height="48" viewBox="0 0 48 48" fill="none" xmlns="http://www.w3.org/2000/svg">
<path d="M24.3981 35.8097L23.5113 34.0171L23.5113 34.0171L24.3981 35.8097ZM23.6019 35.8097L24.4887 34.0171H24.4887L23.6019 35.8097ZM36 18C36 22.5126 33.583 26.1961 30.6693 28.9952C27.7633 31.7869 24.5664 33.4952 23.5113 34.0171L25.2849 37.6024C26.512 36.9953 30.116 35.0734 33.4404 31.8798C36.7571 28.6936 40 24.0367 40 18H36ZM24 6C30.6274 6 36 11.3726 36 18H40C40 9.16344 32.8366 2 24 2V6ZM12 18C12 11.3726 17.3726 6 24 6V2C15.1634 2 8 9.16344 8 18H12ZM24.4887 34.0171C23.4336 33.4952 20.2367 31.7869 17.3307 28.9952C14.417 26.1961 12 22.5126 12 18H8C8 24.0367 11.2429 28.6936 14.5596 31.8798C17.884 35.0734 21.488 36.9953 22.7151 37.6024L24.4887 34.0171ZM23.5113 34.0171C23.8149 33.8669 24.1851 33.8669 24.4887 34.0171L22.7151 37.6024C23.5293 38.0052 24.4707 38.0052 25.2849 37.6024L23.5113 34.0171ZM28 18C28 20.2091 26.2091 22 24 22V26C28.4183 26 32 22.4183 32 18H28ZM24 14C26.2091 14 28 15.7909 28 18H32C32 13.5817 28.4183 10 24 10V14ZM20 18C20 15.7909 21.7909 14 24 14V10C19.5817 10 16 13.5817 16 18H20ZM24 22C21.7909 22 20 20.2091 20 18H16C16 22.4183 19.5817 26 24 26V22Z" fill="#247100"/>
<path d="M39.5885 35C41.1683 35.9121 42 36.9468 42 38C42 39.0532 41.1683 40.0879 39.5885 41C38.0086 41.9121 35.7363 42.6695 33 43.1962C30.2637 43.7228 27.1597 44 24 44C20.8403 44 17.7363 43.7228 15 43.1962C12.2637 42.6695 9.99137 41.9121 8.41154 41C6.83171 40.0879 6 39.0532 6 38C6 36.9468 6.83171 35.9121 8.41154 35" stroke="#247100" stroke-width="4" stroke-linecap="round"/>
</svg>
