<svg width="50" height="50" viewBox="0 0 50 50" fill="none" xmlns="http://www.w3.org/2000/svg">
<circle cx="25" cy="25" r="25" fill="white"/>
<path fill-rule="evenodd" clip-rule="evenodd" d="M25 23.5C26.933 23.5 28.5 21.933 28.5 20C28.5 18.067 26.933 16.5 25 16.5C23.067 16.5 21.5 18.067 21.5 20C21.5 21.933 23.067 23.5 25 23.5ZM25 27C28.866 27 32 23.866 32 20C32 16.134 28.866 13 25 13C21.134 13 18 16.134 18 20C18 23.866 21.134 27 25 27Z" fill="#D3D3D3"/>
<path fill-rule="evenodd" clip-rule="evenodd" d="M25 28.4286C20.2661 28.4286 16.4286 32.2661 16.4286 37H13C13 30.3726 18.3726 25 25 25C31.6274 25 37 30.3726 37 37H33.5714C33.5714 32.2661 29.7339 28.4286 25 28.4286Z" fill="#D3D3D3"/>
</svg>
