<svg width="56" height="56" viewBox="0 0 56 56" fill="none" xmlns="http://www.w3.org/2000/svg">
<circle cx="28" cy="28" r="28" fill="#247100"/>
<path d="M30.5 26.0003C30.5 25.2088 31.5528 24.9989 31.8321 25.7396C32.5077 27.5311 33 29.1337 33 30.0002C33 32.7616 30.7614 35.0002 28 35.0002C25.2386 35.0002 23 32.7616 23 30.0002C23 29.0693 23.5682 27.2887 24.3216 25.337C25.2974 22.8088 25.7854 21.5447 26.3877 21.4766C26.5804 21.4548 26.7907 21.494 26.9626 21.5837C27.5 21.8641 27.5 23.2428 27.5 26.0003C27.5 26.8287 28.1716 27.5003 29 27.5003C29.8284 27.5003 30.5 26.8287 30.5 26.0003Z" stroke="white" stroke-width="2"/>
<path d="M27 35L26.7372 34.343C26.2816 33.204 26.4737 31.9079 27.24 30.95V30.95C27.6296 30.463 28.3704 30.463 28.76 30.95V30.95C29.5263 31.9079 29.7184 33.204 29.2628 34.343L29 35" stroke="white" stroke-width="2"/>
</svg>
